<svg width="1600" height="900" viewBox="0 0 1600 900" fill="none" xmlns="http://www.w3.org/2000/svg">
<mask id="mask0_380_5" style="mask-type:alpha" maskUnits="userSpaceOnUse" x="0" y="0" width="1600" height="900">
<rect width="1600" height="900" fill="#D9D9D9"/>
</mask>
<g mask="url(#mask0_380_5)">
<path d="M355.556 289.16C458.862 230.296 662.222 171.816 891.111 211.816C972.677 226.071 1360 336.621 1644.44 261.035V964.16H-26.6667V380.566C27.4074 403.418 145.778 408.691 355.556 289.16Z" fill="#77AF7C"/>
<path d="M695.729 697.086C328.13 575.707 60.9657 632.655 -26.6667 676.302V1021.31H1635.56V528.736C1573.83 520.422 1382 542.762 1175.56 697.086C1030 805.893 862.222 752.06 695.729 697.086Z" fill="#F5E27A"/>
<path fill-rule="evenodd" clip-rule="evenodd" d="M1599.53 0H-0.473358V388.755C61.8932 402.49 174.787 392.162 355.556 289.16C458.862 230.296 662.222 171.816 891.111 211.816C902.97 213.889 921.292 217.997 944.822 223.272C1074.76 252.405 1363.49 317.141 1599.53 271.311V0Z" fill="#CBF0FF"/>
</g>
</svg>
