<svg width="1600" height="900" viewBox="0 0 1600 900" fill="none" xmlns="http://www.w3.org/2000/svg">
<mask id="mask0_380_12" style="mask-type:alpha" maskUnits="userSpaceOnUse" x="0" y="0" width="1600" height="900">
<rect width="1600" height="900" fill="#D9D9D9"/>
</mask>
<g mask="url(#mask0_380_12)">
<path fill-rule="evenodd" clip-rule="evenodd" d="M1599.53 0H-0.473358V388.755C61.8932 402.49 174.787 392.162 355.556 289.16C458.862 230.296 662.222 171.816 891.111 211.816C902.97 213.889 921.292 217.997 944.822 223.272C1074.76 252.405 1363.49 317.141 1599.53 271.311V0Z" fill="#CBF0FF"/>
<path d="M442.283 57.055C562.726 31.9627 709.126 43.5918 938 89C1019.56 105.182 1350.57 174.805 1635 89V975H-36V89C122 120.945 154.283 117.055 442.283 57.055Z" fill="#77AF7C"/>
<path d="M691.299 833.631C323.749 748.139 56.6206 788.25 -31 818.992V1062H1631V785C1498 785 1302 785 1171.06 833.631C1016.87 890.898 857.77 872.352 691.299 833.631Z" fill="#F5E27A"/>
</g>
</svg>
