<svg width="36" height="78" viewBox="0 0 36 78" fill="none" xmlns="http://www.w3.org/2000/svg">
<path d="M30.2383 75.4563C30.6589 75.2875 31.2346 75.1164 31.6866 75.0828C31.7695 75.0767 32.346 75.1204 32.3901 75.0412C32.5212 74.8043 31.3293 73.8516 31.128 73.7552C29.2703 72.8641 27.0923 73.101 25.0869 72.9669L24.9601 72.9731C25.0259 72.6713 25.0025 72.3761 25.0453 72.0933C25.0619 71.9833 25.2573 71.6925 25.3078 71.5974C25.8085 70.6508 26.3204 69.748 26.8673 68.827C28.4934 66.0888 30.033 63.5985 29.3854 60.2741C29.2402 59.5281 28.6023 58.217 28.1671 57.581L28.0932 57.4111C28.2016 56.1853 28.1972 54.9873 28.036 53.9996L28.0394 53.9198C28.0802 54.1464 28.1279 54.3668 28.1921 54.575C28.8984 56.8618 30.7041 58.6777 33.0097 59.3437L33.09 59.3667C33.3017 58.128 32.7253 57.1582 32.2871 56.1134L32.3029 56.0592C32.9179 56.8848 33.6058 57.6669 34.4947 58.205H34.5273C34.9253 57.1756 35.1288 56.5252 35.1173 55.4495C35.1048 54.2586 35.0969 53.0658 35.0097 51.8926C34.9217 50.7105 35.63 49.5713 35.4706 48.3764C35.2625 46.8155 34.0361 45.5817 33.7825 44.0249C33.7119 43.5906 33.8458 43.1454 33.8853 42.7129C33.9937 41.5292 34.2386 40.3839 34.3853 39.2118C34.6541 37.0667 34.5608 34.9306 34.0687 32.8247C33.729 31.371 33.1589 30.22 32.4789 28.917C32.2251 28.4305 32.1386 27.876 31.9024 27.386C31.6626 26.8885 31.0734 26.4323 31.0612 25.8422C31.0362 24.6373 32.5378 24.5872 33.214 24.1105C35.1388 22.7532 34.9526 21.38 33.9667 19.4909C33.5109 18.6175 32.9168 17.7843 32.5539 16.8686C32.3233 16.2878 32.2965 15.6737 32.0682 15.1026C31.7621 14.3364 30.8995 13.6675 30.235 13.2182C29.2619 12.5601 28.1437 12.3731 27.0249 12.1054C26.6816 12.023 25.9967 12.1174 25.7532 11.791C25.6672 11.6757 25.3211 10.5391 25.3068 10.0404C25.2859 9.30762 25.6504 7.65541 25.5555 7.07253C25.3274 5.67148 25.2672 4.04279 24.2431 2.91208C23.2846 1.85349 21.9727 2.98599 21.5386 3.97859C21.3353 4.4428 21.1032 6.15485 21.1144 6.70013L21.1104 6.74823C20.4533 5.26354 19.5904 3.88294 18.4219 2.64916C17.1399 1.29542 14.9764 -0.283895 13.6911 2.03175C12.6581 3.89215 13.2246 5.95485 14.2354 7.67713C15.4039 9.66771 17.1703 11.2092 18.5601 13.0327C19.1575 13.8166 19.8447 14.744 20.0197 15.7433C20.2388 16.994 19.6406 18.2106 19.4524 19.4201C19.181 21.1618 19.3131 23.2603 20.0222 24.8846C20.4018 25.7537 21.003 26.4934 21.6218 27.2013H21.5817C19.7511 27.8121 19.092 28.3576 18.5482 28.8748C17.8615 29.528 17.0134 29.942 16.4601 30.7431C15.2202 32.5383 15.3205 34.9109 14.5479 36.9015C13.7745 38.8944 12.7058 40.6246 11.7117 42.4991C10.9565 43.9236 10.2981 45.4114 9.50716 46.8191C9.22071 47.3286 8.86642 47.8069 8.6236 48.3419C6.50472 53.0105 4.42308 57.9518 3.77469 63.078C3.48085 65.4008 3.81958 67.762 4.82023 69.8897C5.2212 70.7426 5.71808 71.5966 6.21674 72.3951C6.27898 72.4946 6.33893 72.5953 6.39989 72.6956L6.38585 72.671C4.73886 71.3639 2.13816 71.594 0.582989 72.9176L0.514364 73.1649C0.766884 73.7061 1.40457 74.0741 1.89966 74.3601C3.22221 75.1238 3.99201 75.6813 7.55306 74.723C8.9784 76.8665 11.7849 76.8941 14.0837 77.1821C17.1279 77.5637 20.1513 77.4936 23.2091 77.6397C24.4923 77.7008 25.7708 77.8231 27.0589 77.7826C28.4929 77.7376 29.9274 77.576 31.3617 77.556L31.3193 77.4624C31.3193 77.4624 31.2494 76.7747 30.5873 76.1345C30.422 75.9747 30.235 75.8376 30.035 75.7158" fill="#7ED0F1"/>
<path d="M14.9654 0.768047C15.5853 0.620218 16.226 0.835309 16.767 1.13583C17.7903 1.70412 18.6349 2.60517 19.3496 3.51746C19.6054 3.84407 19.8411 4.18423 20.0669 4.53257C20.4127 5.06583 20.7336 5.6349 21.0076 6.2188C21.0183 6.09399 21.0259 5.96789 21.0394 5.84334C21.0792 5.47607 21.1389 5.11136 21.2068 4.74818C21.2578 4.47554 21.3085 4.18039 21.4221 3.92514C21.8312 3.00441 23.0252 1.84991 24.0684 2.5824C24.8586 3.13715 25.2333 4.3428 25.4075 5.22798C25.5032 5.71418 25.5588 6.20831 25.6307 6.6986C25.6669 6.94515 25.7098 7.19247 25.7024 7.44184C25.6777 8.28047 25.4494 9.10376 25.4394 9.94342C25.4351 10.3081 25.5366 10.6734 25.6307 11.0225C25.6904 11.2442 25.7509 11.4757 25.8458 11.6859C25.9756 11.9726 26.7199 11.9002 27.0494 11.9734C28.1748 12.224 29.3308 12.4675 30.3095 13.1084C31.016 13.5709 31.78 14.1665 32.143 14.9548C32.3531 15.4111 32.4156 15.9113 32.5414 16.3934C32.621 16.6973 32.7324 16.9794 32.8684 17.2645C33.4913 18.5707 34.4886 19.75 34.7653 21.2048C34.9732 22.2966 34.56 23.1562 33.7371 23.8662C33.5372 24.0389 33.3252 24.2133 33.0916 24.3378C32.9525 24.412 32.7832 24.4808 32.6373 24.5378C32.0863 24.7524 31.1079 25.0471 31.1864 25.8325C31.2367 26.3353 31.5963 26.6652 31.8639 27.0632C31.9749 27.2282 32.0542 27.4049 32.1271 27.5908C32.2753 27.9699 32.3626 28.3714 32.5335 28.7418C32.7508 29.2124 33.013 29.6635 33.2349 30.1323C33.5867 30.8751 33.8912 31.6393 34.1039 32.4342C34.6921 34.6345 34.7926 36.9731 34.5103 39.2279C34.3639 40.3977 34.1437 41.5561 34.0162 42.7285C33.9738 43.1175 33.8624 43.5093 33.8966 43.9034C33.9103 44.0623 33.9685 44.2127 34.008 44.3671C34.1374 44.8687 34.3465 45.3291 34.5819 45.7897C35.0944 46.7915 35.6844 47.812 35.6183 48.9787C35.5678 49.8711 35.1574 50.7041 35.1321 51.6003C35.1212 51.9883 35.1666 52.3801 35.188 52.7671C35.226 53.4604 35.2278 54.1591 35.2357 54.8533C35.2436 55.5351 35.2556 56.2068 35.1002 56.8753C35.0107 57.26 34.8778 57.6324 34.7416 58.0022C34.7077 58.0938 34.6791 58.2076 34.6141 58.282C34.4906 58.4229 34.3016 58.2334 34.2075 58.1702C34.0585 58.07 33.9241 57.9715 33.7851 57.8585C33.3844 57.5331 33.0403 57.1434 32.709 56.7474C32.722 56.7771 32.736 56.8057 32.7487 56.8354C33.0155 57.4492 33.253 58.084 33.2668 58.7615C33.2678 58.8122 33.2602 58.8708 33.2589 58.9214C33.2576 58.9728 33.2625 59.0219 33.2589 59.0733C33.2528 59.1569 33.2492 59.3201 33.203 59.4009C33.1523 59.4899 33.0584 59.4917 32.9719 59.4649C32.8758 59.435 32.7804 59.4089 32.685 59.3769C32.2095 59.2173 31.7535 59.0096 31.3219 58.7536C29.9019 57.9104 28.8311 56.5781 28.2531 55.0451C28.2799 55.5313 28.297 56.0211 28.2771 56.5078C28.2687 56.7109 28.2608 56.9121 28.2452 57.115C28.2378 57.2091 28.2128 57.3012 28.2212 57.3948C28.2309 57.505 28.3296 57.5889 28.3886 57.6825C28.4301 57.7485 28.4689 57.8152 28.5082 57.8822C28.688 58.1899 28.8525 58.5104 29.0025 58.8334C29.4129 59.7196 29.6134 60.4882 29.656 61.479C29.794 64.6947 27.8228 67.3771 26.3082 70.039C26.0473 70.4976 25.7919 70.9562 25.543 71.4216C25.4262 71.6401 25.2596 71.8651 25.1764 72.1009C25.1537 72.1649 25.1484 72.3217 25.1443 72.3887C25.1359 72.5362 25.1282 72.6884 25.1045 72.8362C25.2698 72.8449 25.4336 72.8605 25.5988 72.8682C26.111 72.892 26.6247 72.8864 27.1372 72.9002C28.4245 72.9352 29.7468 73.0207 30.9472 73.5317C31.2798 73.6731 31.5338 73.8708 31.8083 74.1071C31.9399 74.2207 32.0697 74.3419 32.1909 74.4667C32.2743 74.5529 32.3621 74.6391 32.4299 74.7386C32.4572 74.7785 32.4832 74.8291 32.5016 74.8744C32.6643 75.2757 32.1159 75.2238 31.8958 75.2181C31.8336 75.2163 31.7588 75.2033 31.6966 75.21C31.6203 75.2181 31.5491 75.2225 31.4734 75.234C31.0038 75.3056 31.4721 75.2386 30.2858 75.5777C30.2572 75.5887 30.2409 75.5545 30.2141 75.5458C30.2052 75.5708 30.2192 75.5281 30.198 75.5857C30.0702 75.9338 30.7508 76.0749 30.9793 76.377C31.0908 76.5248 31.1869 76.6811 31.266 76.8486C31.3232 76.9693 31.3734 77.0954 31.4096 77.2243C31.4244 77.2767 31.4316 77.3302 31.4415 77.3839C31.4448 77.4021 31.4476 77.4113 31.4494 77.4241C31.4517 77.4292 31.456 77.4289 31.4573 77.432C31.4632 77.4445 31.4701 77.4588 31.4734 77.4719C31.4851 77.5172 31.481 77.5586 31.4573 77.5998C31.38 77.7348 31.1347 77.7 31.003 77.7036C30.8842 77.7072 30.7714 77.7069 30.6523 77.7118C30.4141 77.7213 30.173 77.7379 29.9351 77.7517C29.457 77.7796 28.978 77.8169 28.5003 77.8476C27.8057 77.8921 27.1081 77.9302 26.4118 77.9277C25.2127 77.9228 24.0225 77.8057 22.8249 77.7596C20.9234 77.6865 19.0183 77.6739 17.1177 77.5757C15.7013 77.5028 14.2936 77.3435 12.8851 77.1842C11.3891 77.0151 9.78673 76.8184 8.52489 75.9215C8.18692 75.6811 7.88747 75.3933 7.63214 75.0662C7.61454 75.0437 7.53955 74.9424 7.50461 74.8823C7.45946 74.881 7.41303 74.903 7.36916 74.9143C7.18041 74.9624 7.13449 74.9731 6.94676 75.0181C6.6945 75.0788 6.44427 75.1368 6.18946 75.1862C5.24059 75.3695 4.22745 75.4828 3.28802 75.1941C2.7664 75.0337 2.2986 74.7468 1.82927 74.4749C1.32831 74.1844 0.772003 73.8777 0.466172 73.3639C0.225895 72.96 0.619976 72.6917 0.920705 72.4928C1.0615 72.3994 1.22475 72.3061 1.37499 72.2288C2.56515 71.6178 4.02849 71.4815 5.29671 71.9252C5.53852 72.0096 5.75991 72.1406 5.98234 72.2687C5.9405 72.2015 5.90071 72.137 5.8548 72.061C5.68237 71.7774 5.52347 71.5191 5.36048 71.2298C5.28115 71.0892 5.20565 70.9485 5.12938 70.8063C3.9813 68.6646 3.4176 66.3765 3.55916 63.9407C3.61987 62.8918 3.80377 61.8516 4.01344 60.8235C4.42615 58.7984 5.03577 56.817 5.74308 54.8771C6.33867 53.244 7.01078 51.6399 7.71198 50.0499C8.01117 49.3708 8.29124 48.6685 8.63661 48.0117C8.82026 47.6623 9.03911 47.3424 9.2424 47.0045C9.49926 46.5779 9.73214 46.1288 9.95967 45.6858C10.6751 44.293 11.3452 42.8807 12.0959 41.5057C12.9996 39.8512 14.0258 38.1642 14.5989 36.3585C15.0644 34.8912 15.1532 33.3232 15.7148 31.8827C15.8796 31.4605 16.0806 31.0249 16.3525 30.66C16.8379 30.008 17.4863 29.5817 18.1061 29.0776C18.6219 28.6579 19.0535 28.2195 19.6366 27.8865C20.0406 27.6558 20.4699 27.4691 20.904 27.3031C21.0443 27.2494 21.1762 27.2008 21.3182 27.1512C21.3397 27.1438 21.3608 27.1348 21.382 27.1271C21.3251 27.0614 21.2711 26.9944 21.2147 26.9274C21.0616 26.7453 20.9119 26.566 20.7683 26.376C20.337 25.8049 19.9761 25.1887 19.7322 24.5138C19.1478 22.8969 19.0578 21.0884 19.3177 19.3986C19.5279 18.0311 20.2342 16.6809 19.7641 15.2903C19.5442 14.6407 19.1624 14.0645 18.7596 13.5161C18.3229 12.921 17.8434 12.3519 17.3567 11.7977C15.6875 9.89611 13.7452 7.97586 13.156 5.4198C12.8749 4.19983 12.9973 2.90338 13.6582 1.82306C13.9579 1.33353 14.3936 0.904367 14.9654 0.768047ZM15.7467 1.02381C15.5092 0.978026 15.2674 0.967028 15.0292 1.02381C14.3043 1.19644 13.851 1.90336 13.5865 2.55043C12.9601 4.08269 13.3746 5.76585 14.1125 7.1779C15.169 9.19942 16.8889 10.7465 18.3053 12.501C19.0185 13.3844 19.8095 14.3343 20.0987 15.4584C20.4217 16.7126 19.8824 17.927 19.6366 19.1428C19.3756 20.4329 19.3866 21.8153 19.6286 23.1071C19.8426 24.2504 20.2742 25.28 20.9757 26.2082C21.1637 26.4571 21.3634 26.6982 21.5654 26.9353C21.6251 27.0054 21.7825 27.1371 21.733 27.2471C21.7052 27.3085 21.6799 27.3156 21.6213 27.3351C21.6131 27.3376 21.608 27.3353 21.5973 27.3351C21.532 27.3589 21.4718 27.3842 21.406 27.4069C21.3361 27.4315 21.2603 27.4535 21.1907 27.4791C21.1249 27.5031 21.0652 27.5256 20.9994 27.5509C20.6219 27.6954 20.2474 27.8617 19.8916 28.0545C19.5457 28.2417 19.2177 28.4614 18.919 28.7177C18.701 28.9052 18.5046 29.1034 18.2814 29.2852C17.6123 29.83 16.8887 30.2894 16.4242 31.0436C15.6199 32.3498 15.4641 33.9168 15.1328 35.3836C14.8938 36.4424 14.5058 37.434 14.0408 38.4128C13.3677 39.8294 12.5632 41.174 11.8329 42.5607C11.1419 43.8728 10.5249 45.2224 9.81631 46.525C9.51839 47.0728 9.16563 47.5882 8.87561 48.1396C8.68227 48.5074 8.5203 48.8956 8.34965 49.2744C8.08438 49.8632 7.82191 50.455 7.56837 51.0489C6.84525 52.743 6.14992 54.4497 5.55969 56.196C4.97302 57.9316 4.48839 59.6999 4.1568 61.503C3.79255 63.4852 3.65584 65.4021 4.10094 67.3855C4.39733 68.7047 4.93833 69.9193 5.59973 71.094C5.83363 71.5094 6.08258 71.9191 6.33281 72.3247C6.3726 72.3892 6.41316 72.4521 6.45244 72.5166C6.46519 72.5373 6.47182 72.56 6.48432 72.5805C6.48891 72.5879 6.49682 72.5989 6.50039 72.6045C6.50166 72.6068 6.51034 72.6153 6.5083 72.6125C6.50753 72.614 6.51008 72.6194 6.5083 72.6206C6.43535 72.669 6.36826 72.7196 6.29302 72.7644C6.29939 72.771 6.31521 72.7843 6.30908 72.7802C6.30092 72.7749 6.29327 72.7698 6.28511 72.7644C6.00861 72.581 5.74972 72.4002 5.44006 72.2687C4.34606 71.8045 3.06534 71.8385 1.96496 72.2608C1.65097 72.3813 1.34464 72.5385 1.06406 72.7245C0.939583 72.8068 0.829901 72.9058 0.705426 72.9882C0.704151 72.992 0.706191 72.9938 0.705426 72.9961C0.699049 73.0194 0.688083 73.037 0.681451 73.06C0.656964 73.148 0.675071 73.1877 0.697517 73.2199C1.01738 73.6841 1.4862 73.9657 1.96496 74.2429C2.41619 74.5046 2.86613 74.7762 3.36786 74.9304C4.00757 75.1271 4.67791 75.1153 5.3365 75.0422C5.85761 74.9844 6.37362 74.8767 6.88299 74.7544C6.95084 74.7383 7.02252 74.7235 7.09011 74.7066C7.21076 74.6764 7.44262 74.5808 7.57653 74.6186C7.69743 74.6529 7.89129 74.9486 7.94307 75.0102C8.09968 75.1964 8.27339 75.3672 8.46112 75.5217C9.05901 76.0143 9.78392 76.323 10.5257 76.521C11.5975 76.8069 12.7119 76.8882 13.8097 77.0164C14.9154 77.1453 16.0217 77.2468 17.1335 77.3041C19.1606 77.4087 21.1879 77.4118 23.2155 77.5039C24.2824 77.5525 25.3512 77.6514 26.4197 77.6558C27.1099 77.6586 27.7958 77.62 28.4842 77.5757C29.0824 77.5374 29.6792 77.4872 30.2779 77.456C30.3978 77.4496 30.5164 77.4448 30.6365 77.4399C30.7564 77.4351 30.8832 77.4353 31.003 77.432C31.0607 77.4305 31.113 77.4259 31.1706 77.4241C31.1696 77.4189 31.1716 77.4133 31.1706 77.408C31.1482 77.2993 31.116 77.1913 31.0747 77.0883C30.9717 76.8312 30.8204 76.5921 30.6365 76.3849C30.5424 76.279 30.4432 76.1788 30.3335 76.0893C30.2766 76.0427 30.1636 76.0261 30.1503 75.9534C30.1128 75.7506 30.1506 75.9578 29.959 75.8335C29.896 75.7928 29.8784 75.7046 29.919 75.6417C29.9595 75.5788 30.0475 75.5611 30.1103 75.6018C30.1325 75.5985 30.1514 75.5598 30.1741 75.5297C30.1618 75.5202 30.1424 75.5279 30.1343 75.5138C30.1139 75.6013 30.11 75.6496 30.0784 75.5857C30.0473 75.5225 30.0929 75.4563 30.1582 75.4018C30.1723 75.3803 30.1644 75.3481 30.1901 75.3378C30.1771 75.3655 30.1832 75.3701 30.1741 75.3938C30.2182 75.3583 30.2684 75.3225 30.3016 75.29C30.3312 75.2611 30.3824 75.2639 30.4212 75.2501C30.4983 75.2227 30.5824 75.1946 30.6605 75.1701C30.9125 75.091 31.1721 75.0263 31.4336 74.9864C31.695 74.9463 31.9797 74.9465 32.2465 74.9463C32.2366 74.9271 32.2284 74.9105 32.2146 74.8903C32.1547 74.803 32.081 74.7184 32.0075 74.6427C31.9394 74.5723 31.8731 74.5082 31.8001 74.4427C31.6547 74.312 31.4999 74.1877 31.3459 74.0672C31.1173 73.8882 30.8885 73.7785 30.6125 73.6754C30.223 73.5301 29.8177 73.4299 29.4088 73.3557C28.8255 73.2503 28.2309 73.2056 27.6394 73.18C26.954 73.1503 26.2679 73.1557 25.5828 73.124C25.4195 73.1166 25.2596 73.101 25.0966 73.092C25.1096 73.092 25.0696 73.0994 25.0568 73.0999C25.0395 73.101 25.0183 73.1015 25.001 73.0999C24.9367 73.0951 24.8826 73.0565 24.8576 72.9961C24.8285 72.9268 24.8696 72.7079 24.8734 72.6605C24.8775 72.6125 24.8788 72.5646 24.8813 72.5166C24.8905 72.3559 24.8821 72.1766 24.9293 72.0211C24.9826 71.8452 25.1058 71.693 25.1923 71.5337C25.3614 71.2221 25.531 70.9086 25.7024 70.5984C25.7876 70.4441 25.871 70.2963 25.9575 70.1428C27.1244 68.0732 28.6069 66.0218 29.1777 63.6849C29.5178 62.2931 29.5249 60.7741 28.9864 59.4329C28.7903 58.9442 28.5505 58.4649 28.285 58.0101C28.1848 57.8388 27.9912 57.6313 27.9662 57.4267C27.9407 57.2175 28.0019 57.006 28.0139 56.7953C28.0366 56.404 28.0414 56.0126 28.0378 55.6206C28.0348 55.2553 28.0121 54.8886 27.9741 54.5257C27.9651 54.4402 27.9537 54.3548 27.9422 54.2699C27.9312 54.1873 27.9289 54.1044 27.9264 54.0221C27.9246 54.0136 27.92 54.0062 27.9185 53.998C27.9174 53.9944 27.9246 54.0019 27.9264 54.006C27.9269 53.9771 27.9062 53.9451 27.9185 53.918C27.9646 53.8159 28.073 53.8039 28.1496 53.8781C28.197 53.9244 28.1947 54.0719 28.2052 54.118C28.2217 54.1898 28.2429 54.2622 28.261 54.3338C28.2786 54.4026 28.296 54.4655 28.3169 54.5336C28.4602 54.9973 28.648 55.4518 28.8829 55.8763C29.6279 57.2234 30.8115 58.3088 32.2225 58.9214C32.4047 59.0004 32.5766 59.0662 32.7648 59.1293C32.8321 59.1518 32.9066 59.1789 32.9798 59.2012C32.9934 59.1068 33.001 59.0222 33.0038 58.9135C33.0051 58.8667 33.0048 58.8163 33.0038 58.7695C33.0018 58.6761 32.9982 58.5907 32.9877 58.4979C32.9681 58.3186 32.9301 58.1444 32.8842 57.9702C32.7911 57.617 32.6551 57.2738 32.5097 56.9393C32.3985 56.6838 32.2559 56.428 32.1669 56.164C32.1496 56.1124 32.1651 56.0351 32.2067 55.9963C32.3534 55.8579 32.4891 56.0886 32.5653 56.1881C32.6171 56.2554 32.6638 56.3213 32.7169 56.3878C32.9283 56.6523 33.1505 56.904 33.3864 57.1472C33.6196 57.3873 33.8751 57.6106 34.1437 57.8104C34.244 57.8851 34.3506 57.9567 34.4544 58.0262C34.4616 58.0078 34.4715 57.9886 34.4784 57.9702C34.5177 57.8674 34.5493 57.7881 34.5901 57.6746C34.6396 57.5362 34.6903 57.3758 34.7335 57.2349C34.9125 56.6515 34.9908 56.0623 34.9885 55.4525C34.9855 54.662 34.9801 53.8689 34.9487 53.0788C34.9273 52.5371 34.8462 51.9826 34.885 51.4404C34.9319 50.7877 35.1543 50.1693 35.2755 49.5302C35.3706 49.0291 35.3959 48.5184 35.2755 48.0196C34.9681 46.7444 34.081 45.7073 33.753 44.439C33.7096 44.2712 33.6578 44.1001 33.6415 43.9275C33.6025 43.5157 33.717 43.1029 33.7611 42.6968C33.8675 41.717 34.0328 40.754 34.1756 39.7793C34.4353 38.0049 34.4871 36.2035 34.2394 34.4245C34.1009 33.4293 33.8848 32.4431 33.5379 31.4991C33.3005 30.8531 33.0031 30.2267 32.6929 29.6129C32.5636 29.3566 32.4228 29.1065 32.3024 28.8456C32.1292 28.4701 32.0381 28.0709 31.8879 27.6867C31.6328 27.0343 31.0048 26.5808 30.9314 25.8565C30.9117 25.6634 30.9676 25.4463 31.051 25.2729C31.4004 24.5453 32.3353 24.4442 32.9719 24.1061C33.4902 23.8309 33.9863 23.3537 34.2792 22.8432C34.6733 22.1562 34.5957 21.3751 34.3429 20.6534C33.9884 19.6411 33.3747 18.76 32.8684 17.8241C32.7095 17.5303 32.5595 17.2287 32.4299 16.9208C32.1266 16.2011 32.1649 15.3712 31.7045 14.7149C31.4272 14.3195 31.0563 13.9929 30.6763 13.6998C30.3608 13.4565 30.0358 13.2251 29.68 13.0445C29.0979 12.7491 28.4625 12.5788 27.8307 12.4291C27.5285 12.3575 27.2211 12.2667 26.914 12.2212C26.638 12.1803 26.3569 12.1985 26.085 12.1253C25.9029 12.0765 25.7266 12.0036 25.6228 11.8376C25.4915 11.6284 25.4389 11.3294 25.3757 11.0943C25.2836 10.7529 25.1925 10.4023 25.1764 10.0473C25.1614 9.71989 25.2155 9.37973 25.256 9.05619C25.3234 8.51884 25.4226 7.97612 25.4394 7.43366C25.4504 7.07815 25.3693 6.72878 25.3198 6.3789C25.2509 5.89193 25.1869 5.40292 25.0726 4.92414C25.0163 4.68782 24.9499 4.45687 24.8655 4.22873C24.6584 3.6699 24.222 2.78727 23.5822 2.63816C23.1586 2.5397 22.7352 2.76476 22.4184 3.02998C22.0949 3.30058 21.833 3.64381 21.6611 4.02898C21.4583 4.48347 21.407 5.11468 21.3422 5.60344C21.3302 5.69372 21.3124 5.77658 21.3024 5.86738C21.2848 6.02825 21.266 6.19322 21.2545 6.35486C21.244 6.50448 21.3312 6.9004 21.0474 6.84234C20.9792 6.82853 20.8527 6.49348 20.8242 6.43466C20.7652 6.31368 20.7094 6.19527 20.6489 6.07506C20.4678 5.71572 20.2681 5.36354 20.059 5.02005C19.8483 4.67401 19.6297 4.33104 19.3894 4.00494C19.1453 3.67348 18.8821 3.35352 18.6084 3.04584C17.9873 2.34813 17.281 1.66576 16.4321 1.25553C16.2168 1.15143 15.9842 1.06959 15.7467 1.02381Z" fill="#7ED0F1"/>
<path d="M15.4515 0.000927275C16.5682 0.0328972 17.6714 0.867954 18.4406 1.60735C20.6888 3.76827 21.9951 6.68725 22.7531 9.67171C22.8075 9.88655 22.8605 10.1311 22.9284 10.3433C23.1266 10.9633 23.3686 11.5214 23.3827 12.1815C23.3883 12.4654 23.1638 12.7035 22.8807 12.7091C22.5973 12.7145 22.368 12.4894 22.3624 12.2055C22.3534 11.6564 22.1203 11.1786 21.9558 10.663C21.8777 10.4178 21.8201 10.1768 21.7566 9.92747C21.0766 7.25274 19.9484 4.70665 18.0422 2.67847C17.8854 2.51146 17.7252 2.34497 17.5558 2.19074C16.7495 1.4562 15.3538 0.426767 14.4312 1.53548C14.2738 1.725 14.1475 1.94521 14.0407 2.16695C13.2627 3.7831 13.8256 5.62508 14.6863 7.0824C15.7948 8.95865 17.438 10.4574 18.7995 12.1416C19.4928 12.9991 20.2083 13.9483 20.4891 15.0347C20.8911 16.5887 20.1042 18.0732 19.9313 19.5985C19.7461 21.2326 19.8772 23.0311 20.6088 24.5298C20.9681 25.2661 21.4941 25.906 22.0277 26.5201C22.2241 26.7462 22.2055 27.0823 21.9798 27.2792C21.7543 27.4762 21.4112 27.4575 21.2145 27.2314C20.6187 26.5447 20.0376 25.8321 19.6364 25.0094C18.8146 23.3247 18.646 21.3103 18.8551 19.4706C18.9345 18.775 19.1194 18.1161 19.2936 17.4407C19.4734 16.7432 19.627 16.0117 19.4451 15.2984C19.1663 14.2058 18.2953 13.2316 17.6038 12.3733C17.189 11.8585 16.7442 11.3725 16.3044 10.8786C14.383 8.7208 12.0539 5.89849 12.7334 2.77438C12.8135 2.40583 12.9365 2.05084 13.1002 1.71144C13.2681 1.36336 13.4726 1.02652 13.7379 0.744166C13.9134 0.557206 14.1192 0.396846 14.3437 0.272547C14.7056 0.0722872 15.0793 -0.00981463 15.4515 0.000927275ZM21.414 26.3841C21.6821 26.2928 21.9764 26.435 22.0675 26.7038C22.1586 26.9728 22.017 27.2677 21.7487 27.3593C20.9886 27.6181 20.22 27.9115 19.5566 28.3744C19.1158 28.6821 18.7449 29.0754 18.321 29.4054C17.9178 29.7192 17.4795 30.0079 17.1334 30.3882C16.9314 30.6105 16.7669 30.8611 16.6233 31.1238C15.9501 32.3553 15.8035 33.787 15.4994 35.1359C15.2153 36.3963 14.7258 37.571 14.1524 38.7245C13.5308 39.9749 12.8247 41.1813 12.1756 42.4171C11.5486 43.6102 10.987 44.8374 10.3582 46.0297C10.1827 46.3622 10.0016 46.6904 9.80827 47.0126C9.61186 47.3397 9.39556 47.6576 9.21829 47.9958C9.02903 48.3569 8.87522 48.7431 8.70815 49.1147C8.40002 49.8001 8.10184 50.4853 7.80749 51.1769C7.00656 53.0583 6.25946 54.9632 5.64729 56.9154C5.20092 58.3387 4.82469 59.7878 4.55533 61.2554C4.23955 62.9751 4.08447 64.6848 4.388 66.4186C4.54742 67.3309 4.81933 68.2248 5.19301 69.0719C5.65724 70.1249 6.2615 71.1054 6.85888 72.0852C7.01498 72.3413 6.93871 72.672 6.68364 72.8285C6.42832 72.985 6.09035 72.9085 5.93425 72.6525C5.31213 71.6315 4.68797 70.6087 4.20461 69.5115C3.83628 68.6762 3.56234 67.8015 3.38353 66.9061C2.98894 64.9301 3.13305 63.0221 3.49525 61.0556C3.75338 59.653 4.10411 58.2701 4.52345 56.9074C5.1675 54.813 5.96537 52.7741 6.827 50.7613C7.12543 50.0638 7.43126 49.3664 7.74372 48.6751C7.92023 48.2843 8.08552 47.8802 8.28575 47.5003C8.47322 47.1443 8.69973 46.8134 8.90736 46.4694C9.09178 46.164 9.25859 45.8492 9.42566 45.5341C10.0565 44.3438 10.6217 43.121 11.251 41.9296C11.8988 40.7023 12.6084 39.5035 13.2278 38.261C13.6828 37.3477 14.1162 36.4137 14.3756 35.4236C14.7722 33.9095 14.8987 32.3069 15.5951 30.8839C15.805 30.455 16.0537 30.0468 16.3764 29.6931C16.8146 29.2123 17.3655 28.8616 17.8667 28.4542C18.2404 28.1503 18.5784 27.8035 18.9748 27.5271C19.7178 27.0089 20.5618 26.6744 21.414 26.3841ZM3.43939 70.9502C4.57523 70.897 5.71897 71.2131 6.69155 71.9333C6.91933 72.1021 6.96346 72.4241 6.79511 72.6525C6.62677 72.8812 6.30563 72.9254 6.0776 72.7566C4.52167 71.6024 2.39207 71.8233 0.920565 73.0124C0.686919 73.1998 0.350227 73.1666 0.16326 72.9323C-0.0237076 72.6983 0.00944869 72.3525 0.243094 72.165C1.17359 71.4221 2.30356 71.0036 3.43939 70.9502ZM0.665493 72.341C0.790989 72.3791 0.901437 72.4714 0.968266 72.5968C1.24476 73.1216 1.83066 73.3924 2.32346 73.6756C2.78922 73.9436 3.25625 74.207 3.79012 74.307C4.95197 74.5252 6.29288 74.1671 7.41672 73.8674C7.70623 73.7909 8.00211 73.9692 8.07838 74.2592C8.1549 74.5492 7.97711 74.8459 7.68786 74.9226C6.31328 75.2843 4.78719 75.6633 3.37563 75.2981C2.74738 75.1357 2.19363 74.807 1.63783 74.483C1.0152 74.1196 0.411187 73.7295 0.0596992 73.0763C-0.0739581 72.8257 0.025014 72.5149 0.274729 72.3809C0.399714 72.3139 0.539743 72.3026 0.665493 72.341ZM7.64807 73.8914C7.77714 73.915 7.89421 73.9825 7.97482 74.0994C9.04867 75.6556 10.9012 75.9654 12.6538 76.1692C13.2752 76.2416 13.8973 76.3153 14.5189 76.3851C16.9026 76.6529 19.3066 76.6483 21.7007 76.7209C22.4282 76.7429 23.1505 76.7682 23.877 76.8086C24.9302 76.8674 25.9857 76.9434 27.0414 76.9127C28.4774 76.8708 29.9094 76.7298 31.3457 76.6889C31.6449 76.6805 31.8954 76.9165 31.9036 77.2163C31.912 77.5163 31.6768 77.7595 31.3776 77.7677C29.9413 77.8074 28.5091 77.9513 27.0733 77.9918C25.2715 78.0424 23.4691 77.8457 21.6691 77.7838C19.1156 77.6961 16.5654 77.6649 14.0249 77.3682C11.5229 77.0761 8.70789 76.9741 7.13002 74.6907C6.96856 74.4572 7.02442 74.1331 7.25755 73.9715C7.37387 73.8907 7.51875 73.8679 7.64807 73.8914ZM16.9819 55.1491C17.9407 55.2376 18.8485 55.5013 19.716 55.9164C20.481 56.2824 21.2179 56.7264 21.8604 57.2832C22.3784 57.732 22.8416 58.2463 23.1995 58.8336C24.5055 60.9768 24.231 63.7009 23.5102 65.9948C23.3436 66.5255 23.1541 67.0483 22.9603 67.5696C22.7776 68.0601 22.5787 68.5463 22.3305 69.0079C21.8668 69.8711 21.2582 70.6868 20.6327 71.4377C20.3345 71.7957 20.0264 72.1441 19.6923 72.4689C19.2456 72.9027 18.7582 73.2771 18.4009 73.7955C18.23 74.0418 17.8971 74.1029 17.6517 73.9313C17.4061 73.76 17.3451 73.4183 17.516 73.1722C18.0509 72.4072 18.8087 71.8645 19.429 71.174C20.1473 70.3747 20.871 69.4445 21.3819 68.4964C21.6071 68.0788 21.7823 67.6376 21.9479 67.1938C22.4397 65.8762 22.8919 64.5437 23.0161 63.1337C23.1169 61.9868 22.9985 60.8293 22.5139 59.7768C22.1208 58.9233 21.4229 58.2264 20.6725 57.6827C19.3762 56.7435 17.8621 56.1703 16.2567 56.1481C13.6624 56.112 11.2073 57.2021 8.76401 57.9305C8.49235 58.0116 8.20693 57.8591 8.12633 57.5867C8.04547 57.3146 8.2054 57.0284 8.47705 56.9473C11.241 56.1225 14.0328 54.877 16.9819 55.1491ZM18.0343 73.0684C20.0654 73.549 22.1593 73.1702 24.2198 73.3001C25.1559 73.3589 26.1032 73.4735 27.0174 73.6837C27.3449 73.7589 27.6645 73.8635 27.9821 73.9715C28.101 74.0119 28.2203 74.0546 28.3407 74.0914C28.366 74.0991 28.3938 74.108 28.4203 74.1152C28.7124 74.1395 29.0243 74.3106 29.2812 74.4191C29.3756 74.4589 29.4664 74.5055 29.5602 74.5469C29.8556 74.6774 30.167 74.8147 30.4369 74.9945C31.1384 75.4618 31.7426 76.204 31.8559 77.0644C31.8928 77.3623 31.6824 77.635 31.3855 77.6721C31.0886 77.7089 30.8167 77.4981 30.7797 77.2004C30.7856 77.2204 30.7764 77.1567 30.7718 77.1365C30.7611 77.0897 30.7473 77.0462 30.732 77.0004C30.6966 76.8956 30.6504 76.7938 30.5966 76.6968C30.4132 76.3682 30.1515 76.1063 29.8393 75.8976C29.3623 75.5789 28.7889 75.407 28.2688 75.1784C28.2535 75.1715 28.3002 75.1827 28.3167 75.1863C28.1576 75.1815 27.9709 75.105 27.8306 75.0584C27.4806 74.9423 27.1386 74.8155 26.7784 74.7308C25.6107 74.4561 24.368 74.3116 23.1674 74.2991C21.3505 74.2802 19.5987 74.5004 17.803 74.0753C17.5272 74.0101 17.3553 73.7282 17.4204 73.452C17.4854 73.1755 17.7586 73.0029 18.0343 73.0684ZM28.2688 56.7476C28.3976 56.7729 28.5167 56.8456 28.5958 56.9635C29.1314 57.764 29.5906 58.685 29.8393 59.617C29.9523 60.0408 30.0005 60.4906 30.0306 60.9277C30.1724 62.9999 29.473 64.9327 28.5081 66.7302C27.8048 68.0402 27.0026 69.2967 26.2841 70.5985C26.1066 70.9203 25.9405 71.2469 25.7581 71.5655C25.7015 71.6645 25.6449 71.7612 25.5906 71.8615C25.5849 71.8719 25.5814 71.8852 25.5747 71.8934C25.5727 71.896 25.5704 71.9014 25.5668 71.9014C25.5663 72.1776 25.5418 72.4709 25.4951 72.7405C25.4429 73.0359 25.16 73.2323 24.8654 73.1802C24.5708 73.128 24.3749 72.8441 24.4269 72.5487C24.4897 72.2003 24.4364 71.8282 24.5624 71.4937C24.6542 71.2504 24.8299 71.0039 24.9529 70.7745C25.1633 70.3821 25.3799 69.9949 25.5987 69.6074C25.8612 69.1427 26.1305 68.6834 26.4037 68.2248C27.7127 66.026 29.0888 63.8344 29.0103 61.1756C28.9957 60.6822 28.9386 60.1597 28.7871 59.6888C28.5445 58.9356 28.1831 58.197 27.7428 57.5389C27.5849 57.3031 27.6431 56.9857 27.8783 56.8276C27.9959 56.7484 28.1402 56.7223 28.2688 56.7476ZM25.1125 72.1251C26.6703 72.2078 28.2443 72.132 29.7834 72.429C30.4014 72.5479 31.0899 72.7356 31.6087 73.1083C32.0308 73.4114 32.5782 73.8244 32.8284 74.2751C32.9019 74.4078 32.9647 74.5753 32.9399 74.7308C32.9254 74.8226 32.9045 74.9175 32.8522 74.9945C32.7912 75.0843 32.6948 75.1569 32.605 75.2183C32.3885 75.3661 31.964 75.2825 31.7204 75.2981C31.2794 75.3265 30.8369 75.4782 30.429 75.6339C30.1492 75.74 29.8416 75.6027 29.7355 75.3221C29.6296 75.0416 29.7666 74.7249 30.0464 74.6188C30.4591 74.463 30.8853 74.3459 31.3217 74.2751C31.2429 74.2083 31.1799 74.1226 31.0986 74.0592C31.0371 74.0114 30.9769 73.9474 30.9073 73.9155C30.2527 73.6155 29.5811 73.4336 28.8667 73.34C27.6074 73.175 26.3229 73.2247 25.0567 73.1561C24.7738 73.141 24.5634 72.8963 24.5784 72.6126C24.5935 72.329 24.8297 72.1101 25.1125 72.1251ZM27.9581 53.135C28.2543 53.0928 28.5297 53.3015 28.5718 53.5984C28.8799 55.7842 28.6361 58.0435 28.1413 60.1842C27.8859 61.2896 27.5638 62.4198 27.0016 63.4135C26.3915 64.4912 25.7724 65.5629 24.985 66.5225C24.5177 67.0915 23.9958 67.6307 23.6137 68.2647C23.5041 68.4468 23.4008 68.6371 23.335 68.8402C23.1135 69.522 23.2107 70.3003 23.287 70.9983C23.3181 71.2806 23.1143 71.5346 22.8327 71.5655C22.5511 71.5967 22.2978 71.3924 22.2667 71.11C22.1734 70.2612 22.0928 69.3473 22.3624 68.5205C22.6996 67.4867 23.5176 66.689 24.1877 65.867C24.9335 64.9521 25.5099 63.9214 26.0849 62.8938C26.6593 61.8669 26.9577 60.6717 27.1929 59.529C27.5811 57.641 27.7699 55.667 27.4957 53.7504C27.4536 53.4534 27.662 53.1772 27.9581 53.135ZM17.1972 39.5956C17.479 39.5659 17.7333 39.7769 17.7632 40.0593C17.8257 40.6534 17.8172 41.2547 17.9785 41.8335C18.1129 42.3169 18.3236 42.7872 18.5524 43.2322C19.1253 44.3466 19.9229 45.3957 20.9355 46.1415C21.5191 46.5712 22.204 46.8364 22.8327 47.1886C23.8933 47.7827 24.9128 48.4554 25.9175 49.1387C26.5397 49.562 27.1674 49.9682 27.6551 50.5534C28.48 51.5426 28.3527 52.9306 28.7073 54.0941C29.3638 56.2476 31.0452 57.8392 33.171 58.498C33.4569 58.5868 33.6184 58.8909 33.5299 59.1773C33.4411 59.4638 33.1381 59.6259 32.8522 59.5369C30.4864 58.7993 28.606 57.0681 27.7747 54.7094C27.5342 54.0268 27.4579 53.3168 27.3363 52.6076C27.2572 52.1462 27.1501 51.6109 26.8422 51.2408C26.3601 50.6613 25.6877 50.2638 25.0725 49.8421C24.1785 49.229 23.2663 48.6339 22.3226 48.0996C21.7165 47.7566 21.0669 47.4855 20.4891 47.0927C19.1974 46.2141 18.1988 44.8768 17.5242 43.4801C17.3117 43.0404 17.1199 42.5852 16.9901 42.1133C16.8143 41.4754 16.8118 40.8168 16.7429 40.1631C16.713 39.8808 16.9156 39.6255 17.1972 39.5956ZM30.8833 41.2501C31.1787 41.2984 31.3779 41.5775 31.3297 41.8736C31.107 43.2363 31.2513 44.5709 31.6646 45.8857C31.9309 46.7333 32.3346 47.5541 32.4537 48.4433C32.5058 48.8331 32.4535 49.2134 32.4298 49.6024C32.4163 49.8252 32.4208 50.038 32.4298 50.2656C32.4601 51.038 32.5637 51.8094 32.5175 52.5836C32.4803 53.2048 32.2834 53.8544 32.4137 54.4777C32.6239 55.4821 33.1784 56.353 33.4661 57.331C33.6386 57.9177 33.6852 58.5085 33.6016 59.1134C33.5623 59.3947 33.3001 59.5842 33.0198 59.5448C32.7392 59.5057 32.542 59.2507 32.5813 58.9694C32.7236 57.9563 32.3318 57.1739 31.9357 56.268C31.7112 55.7547 31.5169 55.2432 31.4016 54.6936C31.249 53.967 31.4342 53.2462 31.4733 52.5196C31.5222 51.6081 31.3692 50.6971 31.3618 49.7861C31.3585 49.3881 31.459 48.9922 31.4016 48.5953C31.2651 47.6533 30.7807 46.7594 30.5246 45.8458C30.1418 44.4793 30.0357 43.1 30.2617 41.6977C30.3096 41.4015 30.5882 41.202 30.8833 41.2501ZM23.6137 1.63932C23.7869 1.66465 23.9583 1.71887 24.1239 1.8071C25.0172 2.28333 25.5066 3.51813 25.7262 4.43682C25.8456 4.93606 25.9094 5.44759 25.9813 5.95527C26.0364 6.34581 26.1196 6.73354 26.1089 7.13023C26.091 7.78344 25.9604 8.43204 25.8857 9.08039C25.8627 9.27886 25.8369 9.48756 25.8456 9.68782C25.867 10.1699 26.0282 10.6804 26.2045 11.1344C26.2193 11.1387 26.2372 11.1474 26.2522 11.1505C26.38 11.1753 26.5055 11.1817 26.6348 11.1904C27.0036 11.215 27.3424 11.2989 27.703 11.3822C28.4805 11.5623 29.2666 11.7533 29.9826 12.1175C30.3757 12.3175 30.7341 12.5677 31.0827 12.837C31.6464 13.272 32.2079 13.7912 32.5096 14.4513C32.729 14.9317 32.8001 15.4555 32.932 15.9619C33.0047 16.2417 33.1095 16.4979 33.2348 16.7611C33.7406 17.8233 34.4517 18.7698 34.8848 19.8704C35.3493 21.0505 35.3894 22.2229 34.566 23.2592C34.3346 23.5502 34.0625 23.8073 33.7689 24.0344C33.6041 24.1615 33.4572 24.2646 33.2748 24.362C33.1202 24.4444 32.9432 24.5145 32.7805 24.5779C32.352 24.7449 31.4074 24.9728 31.6087 25.6408C31.6768 25.8667 31.8599 26.0623 31.9995 26.2483C32.204 26.5214 32.3762 26.7912 32.5014 27.1114C32.6468 27.4828 32.7249 27.8836 32.8922 28.2465C33.009 28.5 33.1488 28.7404 33.2748 28.9897C33.5957 29.6263 33.8977 30.2778 34.1436 30.9478C34.6305 32.2755 34.8881 33.6957 34.9966 35.1039C35.0807 36.1999 35.0636 37.303 34.9565 38.3968C34.8808 39.1726 34.753 39.9455 34.6298 40.7148C34.5252 41.367 34.4568 42.0192 34.3668 42.6729C34.3298 42.9409 34.2204 43.3062 34.2869 43.5839C34.3436 43.8195 34.3844 44.0581 34.4624 44.2872C34.5402 44.5159 34.6469 44.732 34.7494 44.9507C35.1817 45.8724 35.7595 46.7377 35.9449 47.7561C36.0395 48.275 36.0031 48.807 35.9051 49.3226C35.7886 49.9359 35.5679 50.5344 35.5225 51.1608C35.485 51.6782 35.5659 52.2022 35.5863 52.7194C35.61 53.3179 35.6192 53.9186 35.6261 54.5176C35.6304 54.8974 35.6421 55.2811 35.6182 55.6606C35.5654 56.501 35.3026 57.278 35.0045 58.0584C34.9029 58.3236 34.6073 58.4558 34.3428 58.354C34.0783 58.2525 33.9464 57.9561 34.0479 57.6906C34.2821 57.0783 34.5061 56.4611 34.5739 55.8046C34.628 55.2829 34.5958 54.7611 34.59 54.2378C34.5831 53.6524 34.5744 53.0644 34.542 52.4797C34.5165 52.0189 34.4693 51.5506 34.5022 51.0889C34.577 50.0431 35.1386 49.0065 34.9328 47.9479C34.7527 47.0223 34.2114 46.2305 33.8166 45.3903C33.5766 44.8793 33.4047 44.3673 33.2827 43.8156C33.1894 43.3934 33.2889 42.9471 33.3465 42.5289C33.4511 41.7703 33.5355 41.0158 33.6574 40.259C33.9587 38.3869 34.1201 36.5659 33.9125 34.6722C33.775 33.4205 33.52 32.1668 33.0514 30.9959C32.7328 30.1987 32.3027 29.4629 31.9436 28.6859C31.7334 28.2312 31.6355 27.7337 31.4256 27.2792C31.3376 27.0895 31.1904 26.926 31.0667 26.7598C30.882 26.5117 30.6968 26.2526 30.6045 25.9526C30.5392 25.7411 30.5249 25.5372 30.5407 25.3211C30.5545 25.1308 30.6096 24.9413 30.692 24.7697C31.0955 23.9298 32.0395 23.8183 32.7805 23.427C33.034 23.293 33.2687 23.0896 33.474 22.8914C33.6513 22.7201 33.8133 22.5305 33.9362 22.316C34.3479 21.5983 34.1166 20.7722 33.8087 20.0622C33.3105 18.9131 32.5497 17.9087 32.0632 16.7532C31.8219 16.18 31.7814 15.5455 31.5689 14.9629C31.4934 14.756 31.3434 14.5598 31.2021 14.3953C30.8861 14.0273 30.4897 13.7214 30.0943 13.4442C29.1429 12.7771 28.0188 12.5541 26.9059 12.3014C26.7509 12.2661 26.5851 12.2748 26.4277 12.2615C26.0328 12.228 25.6842 12.1487 25.3913 11.8618C25.3439 11.8152 25.3016 11.7569 25.2638 11.7019C25.1222 11.495 25.0498 11.1116 24.985 10.8707C24.885 10.5001 24.7873 10.1211 24.7697 9.73565C24.7289 8.85175 25.0026 7.97909 25.0327 7.09826C25.0439 6.76807 24.9592 6.432 24.9131 6.10719C24.8149 5.41382 24.7279 4.70537 24.4828 4.045C24.3088 3.57671 23.8563 2.55801 23.2074 2.71837C23.0835 2.74906 22.9717 2.80942 22.8646 2.87822C22.733 2.96288 22.6062 3.06902 22.4981 3.18206C22.3562 3.32989 22.2333 3.49153 22.1313 3.66954C21.9367 4.00868 21.8836 4.41611 21.8203 4.79642C21.7326 5.32508 21.6711 5.85117 21.653 6.38699C21.6426 6.68674 21.3941 6.92485 21.0952 6.91437C20.796 6.90388 20.5664 6.65477 20.5769 6.35502C20.596 5.81971 20.6455 5.28543 20.7284 4.75652C20.7927 4.34577 20.8628 3.91712 21.0074 3.52555C21.2186 2.95342 21.6443 2.43115 22.1313 2.07104C22.5644 1.75058 23.0947 1.56336 23.6137 1.63932ZM32.3022 55.0931C32.4395 55.113 32.5713 55.1808 32.6609 55.301C33.2659 56.1202 33.9089 56.8895 34.7731 57.443C35.0121 57.5954 35.0769 57.9146 34.9246 58.1543C34.7726 58.3939 34.4543 58.4666 34.2153 58.3141C33.2404 57.6931 32.4826 56.8683 31.7921 55.9483C31.613 55.7079 31.6641 55.3685 31.9036 55.189C32.0234 55.0992 32.165 55.0731 32.3022 55.0931Z" fill="black"/>
</svg>
