<svg width="532" height="326" viewBox="0 0 532 326" fill="none" xmlns="http://www.w3.org/2000/svg">
<g id="field">
<ellipse id="hill_ellipse" cx="266" cy="162.765" rx="266" ry="162.765" fill="#77AF7C"/>
<g id="carrot_group">
<g id="whole_carrot">
<g id="green_part">
<path d="M287.105 79.8918C287.013 81.3591 286.868 82.7912 286.675 84.1675L287.525 83.5012C287.499 83.7636 287.471 84.0246 287.441 84.2841L287.786 85.229C287.782 85.5529 287.782 85.8745 287.784 86.1922L288.806 83.4032C290.389 79.0649 294.176 74.0268 298.497 72.2179C304.735 69.6056 311.658 69.593 318.135 67.9143C319.42 67.5816 321.1 66.6859 321.774 65.4735C321.928 65.1971 322.276 63.1427 323.059 63.2516C323.772 63.3509 323.451 64.6498 323.791 65.2858C324.408 66.444 325.173 67.5122 325.993 68.5394C329.334 72.7268 336.536 70.584 339.296 66.4871C341.783 62.7969 340.847 58.3546 338.978 54.6831C334.809 46.4975 329.182 45.0996 320.627 44.049C319.626 43.9261 318.619 43.8081 317.61 43.7334L316.695 43.5309C315.619 39.6495 312.539 34.9314 308.743 33.4505C303.935 31.5746 298.432 32.7739 295.423 36.9549C294.222 38.6252 293.309 40.443 292.601 42.3459L290.62 40.2044C290.408 39.5106 290.119 38.8619 289.736 38.2858C287.308 34.6342 283.301 32.1409 278.636 32.2657C272.556 32.4285 267.688 36.4375 266.865 38.8519L265.704 39.3638C264.222 39.1416 262.717 39.0542 261.223 38.9794C252.614 38.5484 246.831 38.9615 241.323 46.3118C238.851 49.6086 237.168 53.8249 238.986 57.8865C241.003 62.3959 247.731 65.7409 251.741 62.1881C252.725 61.3166 253.661 60.3953 254.467 59.3599C254.911 58.7916 254.817 57.4568 255.537 57.4812C256.327 57.508 256.319 59.5918 256.423 59.8905C256.879 61.2003 258.38 62.3707 259.589 62.9187C265.682 65.6824 272.501 66.8811 278.2 70.5238C282.25 73.1128 285.164 78.9565 285.89 83.5607" fill="#638F66"/>
<path d="M307.118 32.7513C306.087 32.4946 304.986 32.3693 303.807 32.4095C300.456 32.5236 297.239 34.0936 295.274 36.8457C294.476 37.9624 293.783 39.1557 293.204 40.3996C293.043 40.7447 292.913 41.0618 292.78 41.3993C292.749 41.4797 292.619 41.921 292.54 41.9166C292.338 41.9056 291.899 41.3308 291.738 41.1566C291.413 40.8057 291.042 40.4854 290.767 40.0945C290.638 39.9099 290.643 39.6587 290.559 39.4489C290.47 39.2248 290.368 39.019 290.256 38.8051C289.892 38.1066 289.399 37.4647 288.893 36.8634C286.489 34.0046 282.977 32.1475 279.214 32.0766C275.816 32.0125 272.388 33.2088 269.685 35.2537C269.241 35.5892 268.802 35.9511 268.404 36.3406C268.18 36.5611 267.937 36.8261 267.734 37.0679C267.455 37.3989 267.196 37.7573 266.983 38.1349C266.92 38.2482 266.801 38.6072 266.659 38.7043C266.425 38.8652 266.162 38.9636 265.904 39.0775C265.831 39.1095 265.763 39.1391 265.691 39.1712C263.553 38.7939 261.296 38.7825 259.134 38.718C255.258 38.6023 251.233 38.7167 247.691 40.4701C244.761 41.9204 242.382 44.3615 240.57 47.0503C239.501 48.6345 238.644 50.3866 238.255 52.2667C237.353 56.6209 239.481 60.5598 243.33 62.668C244.667 63.3998 246.201 63.8694 247.734 63.8612C250.313 63.8474 252.088 62.3182 253.75 60.4865C254.095 60.1067 254.5 59.7357 254.747 59.2858C254.982 58.8562 254.994 58.3496 255.21 57.913C255.303 57.7252 255.497 57.5879 255.681 57.7362C256.209 58.162 256.067 59.3663 256.241 59.9445C256.609 61.1658 257.827 62.1386 258.882 62.757C260.516 63.7154 262.422 64.3036 264.203 64.9282C267.631 66.1311 271.122 67.1798 274.431 68.6967C276.038 69.4338 277.676 70.2605 279.06 71.3756C281.43 73.284 283.141 76.0056 284.308 78.7838C284.724 79.7741 285.069 80.8029 285.339 81.8424C285.39 82.0402 285.444 82.2269 285.489 82.427C285.533 82.6214 285.513 83.2022 285.612 83.0287C286.172 82.0412 285.593 83.0191 285.694 83.5967C285.712 83.6995 285.82 83.7635 285.922 83.7454C286.024 83.7279 286.088 83.6198 286.071 83.5179C286.674 81.7058 286.676 82.8403 286.68 81.7247C286.681 81.2527 286.342 82.6594 285.965 82.9438C285.803 83.0665 285.888 82.5406 285.843 82.3422C285.797 82.1388 285.75 81.9368 285.698 81.735C285.536 81.1081 285.343 80.4923 285.127 79.8824C284.523 78.1824 283.727 76.5439 282.747 75.0288C281.798 73.5617 280.658 72.1948 279.293 71.0955C276.856 69.1335 273.614 67.8428 270.698 66.7762C267.805 65.7178 264.848 64.8373 261.977 63.7171C260.771 63.2464 259.51 62.802 258.452 62.036C257.714 61.5015 256.873 60.7408 256.6 59.8371C256.429 59.2693 256.542 57.4913 255.685 57.3073C254.706 57.097 254.716 58.5298 254.405 59.1107C254.177 59.5368 253.801 59.8735 253.476 60.2315C253.185 60.552 252.876 60.8643 252.566 61.1658C251.961 61.752 251.333 62.3712 250.588 62.7829C248.563 63.9021 246.128 63.5788 244.103 62.633C240.078 60.7525 237.705 56.7666 238.618 52.3511C239.143 49.8096 240.543 47.5238 242.164 45.535C243.915 43.3872 246.034 41.5611 248.6 40.4669C250.991 39.4466 253.609 39.1241 256.188 39.0587C258.359 39.0036 260.547 39.0998 262.713 39.2416C263.458 39.2904 264.192 39.3577 264.934 39.4486C265.213 39.4827 265.499 39.5771 265.775 39.5253C265.989 39.4853 266.242 39.3385 266.437 39.2495C267.257 38.8758 267.217 38.3453 267.743 37.6432C268.345 36.8372 269.103 36.1488 269.903 35.5434C273.85 32.5573 279.385 31.4557 283.982 33.5459C286.387 34.6394 288.697 36.6041 289.931 38.9682C290.037 39.1713 290.132 39.3719 290.218 39.5843C290.313 39.8193 290.332 40.1058 290.478 40.3137C290.761 40.7188 291.13 41.0402 291.465 41.4035C291.734 41.6946 292.118 42.2796 292.552 42.2775C292.946 42.2756 293.028 41.7432 293.142 41.4837C293.278 41.1757 293.408 40.8571 293.55 40.5519C293.821 39.9726 294.15 39.3135 294.47 38.7601C294.638 38.4684 294.82 38.1879 295.003 37.9051C295.187 37.6205 295.386 37.3368 295.582 37.0608C297.481 34.4003 300.581 32.8811 303.818 32.7705C308.637 32.6057 312.117 35.1331 314.544 39.1146C315.123 40.065 315.618 41.0714 316.019 42.1095C316.083 42.2741 316.155 42.4422 316.213 42.6085C316.329 42.9369 316.395 43.5003 316.75 43.6889C317.259 43.9587 318.099 43.9536 318.611 44.0032C318.946 44.0356 319.278 44.0789 319.612 44.1169C321.294 44.3082 322.965 44.5147 324.633 44.8092C327.481 45.3121 330.353 46.0789 332.803 47.6682C335.146 49.1875 336.924 51.3542 338.284 53.7697C340.762 58.1722 342.075 63.8842 337.956 67.784C337.174 68.5247 336.254 69.1553 335.283 69.621C332.851 70.7878 329.895 71.118 327.509 69.6725C326.601 69.1226 325.953 68.2419 325.34 67.3997C324.849 66.7251 324.034 65.6933 323.85 64.8791C323.771 64.5345 323.781 64.1672 323.714 63.8206C323.653 63.5035 323.467 63.0304 323.053 63.0695C321.899 63.1783 322.004 64.8754 321.448 65.6568C320.488 67.0029 318.815 67.5695 317.286 67.9353C312.927 68.9778 308.442 69.3442 304.071 70.3252C301.79 70.8371 299.399 71.4421 297.337 72.5773C294.689 74.035 292.544 76.3832 290.899 78.8868C289.689 80.7285 288.882 82.6765 288.127 84.7368C288.074 84.8826 288.007 85.0283 287.953 85.1739C287.868 84.8507 287.71 84.5602 287.623 84.2372C287.589 84.1146 287.636 83.8665 287.613 83.6617C287.619 83.6577 287.642 83.6447 287.642 83.6447C287.653 83.6268 287.61 83.606 287.607 83.5884C287.587 83.5365 287.606 83.456 287.548 83.4317C287.529 83.4244 287.511 83.4682 287.492 83.4669C287.449 83.4338 287.45 83.3876 287.422 83.3543C287.421 83.3532 287.088 83.618 287.072 83.6311C287.034 83.6598 286.992 83.6966 286.954 83.7236C286.909 83.4273 287 83.0787 287.029 82.7859C287.078 82.3096 287.549 81.0691 287.17 81.3613C286.529 81.8555 287.185 81.3678 287.294 79.9097C287.301 79.8112 287.219 79.7335 287.121 79.7258C287.023 79.7191 286.928 79.7724 286.921 79.8702C286.309 81.7277 286.322 80.9068 286.319 81.7361C286.317 81.9513 286.748 81.1247 286.82 81.3278C286.979 81.7775 286.727 82.2768 286.679 82.7516C286.653 83.0122 286.526 83.5987 286.697 83.9023C286.635 83.9512 286.575 84.0175 286.575 84.0175C286.572 84.022 286.573 84.0347 286.57 84.0399C286.504 84.1385 286.718 84.2158 286.794 84.307C286.795 84.308 287.021 84.11 287.033 84.0998C287.086 84.0593 287.149 84.0359 287.201 83.996C287.236 83.9689 287.277 83.9518 287.313 83.9265C287.29 84.0703 287.242 84.218 287.268 84.3219C287.351 84.6476 287.528 84.9632 287.617 85.2866C287.647 85.3977 287.62 85.6976 287.655 85.9406C287.679 86.0982 287.7 86.2589 287.874 86.2308C287.98 86.2134 288.041 85.9731 288.073 85.8949C288.209 85.556 288.331 85.2045 288.456 84.8616C288.832 83.8379 289.199 82.8092 289.666 81.8235C291.113 78.7685 293.254 75.9091 295.981 73.8854C297.914 72.4519 300.209 71.6714 302.514 71.061C306.303 70.0583 310.213 69.6313 314.064 68.9518C315.77 68.6506 317.62 68.4073 319.223 67.7179C320.298 67.2563 321.306 66.5909 321.92 65.5758C322.282 64.977 322.194 63.9436 322.811 63.4908C323.386 63.0695 323.407 64.3127 323.432 64.5192C323.45 64.6677 323.461 64.8181 323.495 64.9638C323.527 65.1007 323.56 65.2239 323.62 65.3512C324.224 66.6318 325.291 68.1446 326.293 69.1504C328.71 71.576 332.565 71.3276 335.446 69.9456C336.451 69.4639 337.393 68.8227 338.203 68.0565C342.138 64.3309 341.319 59.0217 339.138 54.6135C337.596 51.495 335.336 48.6656 332.284 46.9262C329.955 45.5989 327.316 44.9047 324.695 44.4415C323.02 44.1456 321.341 43.9363 319.651 43.7438C319.315 43.7056 318.959 43.6803 318.622 43.6475C318.286 43.6149 317.954 43.585 317.617 43.5565C317.506 43.5471 317.094 43.462 316.92 43.3702C316.768 43.2897 316.772 43.1387 316.722 42.9898C316.667 42.8234 316.614 42.6387 316.556 42.4734C316.496 42.3034 316.427 42.1424 316.361 41.9742C316.296 41.8034 316.239 41.6441 316.167 41.4752C315.723 40.4201 315.181 39.4084 314.556 38.4488C312.677 35.5631 310.214 33.5217 307.118 32.7513Z" fill="black"/>
</g>
<g id="carrot">
<path d="M290.475 86.2414C290.475 86.2414 313.62 85.1563 319.308 103.98C325.122 123.218 317.064 159.588 312.934 174.751C310.143 184.998 307.262 195.23 304.337 205.444C302.135 213.136 299.262 220.609 297.194 228.347C293.681 241.491 276.969 281.033 271.829 275.184C266.689 269.335 262.386 248.603 260.586 242.036C257.684 231.447 255.782 221.07 254.271 210.216C253.587 205.299 246.583 157.275 247.29 144.823C247.509 140.956 246.382 106.857 258.41 93.2218C260.586 90.7551 272.732 85.8259 276.214 85.8088C281.242 85.785 290.475 86.2414 290.475 86.2414Z" fill="#FF9973"/>
<path d="M296.784 85.9186C295.421 85.7179 294.052 85.5747 292.676 85.5108C292.207 85.4894 292.365 85.5171 290.577 85.4994C290.551 85.4956 290.541 85.4627 290.514 85.461C290.106 85.4416 290.173 85.4419 290.113 85.4395C289.862 85.4274 289.688 85.4115 289.429 85.3994C288.929 85.3767 288.44 85.3598 287.94 85.3388C286.545 85.279 285.145 85.2226 283.75 85.1742C281.93 85.1123 280.114 85.0508 278.292 85.0251C277.423 85.0136 276.525 84.9703 275.658 85.0564C274.122 85.2089 272.611 85.6838 271.151 86.1559C268.317 87.0709 265.548 88.2009 262.871 89.5045C261.273 90.2825 259.545 91.1117 258.205 92.3103C257.482 92.9567 256.902 93.7913 256.34 94.5743C255.371 95.9244 254.533 97.3662 253.791 98.8524C251.568 103.303 250.17 108.13 249.16 112.986C247.66 120.204 247.001 127.604 246.714 134.962C246.603 137.812 246.577 140.643 246.541 143.496C246.515 145.602 246.441 147.712 246.524 149.82C246.729 155.044 247.22 160.243 247.757 165.44C248.454 172.201 249.289 178.96 250.152 185.702C251.065 192.828 252.027 199.942 253.034 207.055C254.584 217.993 256.354 228.894 259.137 239.597C260.32 244.147 261.434 248.707 262.617 253.257C263.911 258.233 265.291 263.224 267.153 268.022C268.067 270.377 269.074 272.772 270.557 274.834C271.14 275.643 271.79 276.464 272.858 276.54C273.832 276.61 274.741 276.065 275.471 275.477C276.73 274.46 277.751 273.141 278.685 271.832C278.895 271.537 279.1 271.225 279.302 270.925C279.713 270.313 280.183 269.601 280.569 268.975C282.768 265.398 284.647 261.642 286.455 257.856C288.885 252.764 291.121 247.576 293.179 242.322C294.597 238.703 295.932 235.027 297.104 231.32C298.196 227.865 299.097 224.365 300.198 220.911C301.616 216.463 303.156 212.056 304.498 207.583C306.471 201.005 308.266 194.37 310.121 187.757C311.818 181.705 313.546 175.641 315.058 169.539C317.256 160.675 319.08 151.708 320.365 142.666C321.457 134.977 322.199 127.195 322.079 119.422C321.942 110.538 320.892 100.761 314.389 94.1048C312.992 92.6749 311.392 91.4317 309.691 90.3835C305.788 87.9776 301.301 86.5851 296.784 85.9186ZM300.958 88.3003C303.452 88.9716 305.893 89.9171 308.141 91.1923C310.035 92.2665 311.788 93.5843 313.311 95.1436C317.138 99.0612 318.858 103.937 319.744 109.253C320.565 114.182 320.707 119.213 320.559 124.202C320.345 131.424 319.503 138.629 318.378 145.761C317.073 154.031 315.37 162.235 313.317 170.351C311.66 176.899 309.773 183.4 307.949 189.903C306.335 195.654 304.765 201.429 303.046 207.15C301.706 211.614 300.169 216.015 298.752 220.455C297.702 223.746 296.834 227.074 295.819 230.375C294.779 233.761 293.563 237.092 292.29 240.395C288.924 249.138 285.168 257.882 280.515 266.025C279.18 268.362 277.761 270.706 276.008 272.76C275.325 273.562 274.515 274.507 273.504 274.9C272.667 275.224 272.273 274.567 271.818 273.934C271.374 273.315 270.984 272.654 270.625 271.984C268.659 268.331 267.384 264.305 266.195 260.347C264.607 255.06 263.316 249.672 261.977 244.319C260.675 239.116 259.273 233.957 258.189 228.7C256.751 221.728 255.684 214.702 254.686 207.656C253.142 196.758 251.681 185.848 250.397 174.916C249.415 166.563 248.421 158.165 248.092 149.756C247.982 146.961 248.099 144.177 248.132 141.383C248.205 135.172 248.472 128.958 249.193 122.786C250.07 115.28 251.484 107.565 254.661 100.655C255.491 98.8482 256.446 97.1082 257.607 95.4903C258.099 94.8053 258.634 94.0542 259.267 93.4888C260.073 92.7716 261.052 92.2171 261.998 91.7132C263.372 90.9816 264.785 90.3234 266.214 89.7104C267.997 88.9459 269.791 88.2504 271.637 87.6542C272.918 87.2404 274.232 86.8394 275.57 86.66C276.697 86.509 277.864 86.6013 278.995 86.6218C281.747 86.6717 284.492 86.7809 287.242 86.8958C288.069 86.9302 287.252 86.8989 290.432 87.0423C290.484 87.0445 290.517 86.9848 290.566 86.978C291.36 86.9696 291.199 86.9718 291.475 86.9743C292.178 86.9828 292.88 87.0089 293.581 87.0591C296.071 87.2388 298.546 87.6513 300.958 88.3003Z" fill="#FF9973"/>
</g>
<g id="carrot_outline">
<path d="M303.493 85.9288C301.376 85.2469 299.203 84.7656 297.009 84.4418C295.445 84.2118 293.865 84.0638 292.285 84.0105C291.85 83.9954 291.416 83.9663 290.981 83.9687C290.85 83.9398 290.735 83.8862 290.596 83.879C290.585 83.8787 290.548 83.9024 290.573 83.8738C290.612 83.83 290.468 83.8621 290.409 83.8593C290.345 83.8565 290.235 83.8552 290.172 83.8521C289.92 83.8401 289.771 83.8296 289.512 83.8175C289.009 83.7944 288.501 83.7729 287.999 83.7516C286.6 83.6915 285.209 83.6357 283.809 83.5877C281.978 83.5247 280.133 83.4756 278.3 83.4505C277.371 83.4372 276.429 83.376 275.502 83.4672C273.546 83.6593 271.609 84.3124 269.761 84.9471C266.872 85.9386 264.027 87.1275 261.31 88.5187C259.866 89.2575 258.381 90.0456 257.165 91.1358C256.356 91.8612 255.681 92.7739 255.05 93.6518C254.291 94.7092 253.61 95.826 252.987 96.9687C250.334 101.847 248.757 107.263 247.632 112.677C245.784 121.57 245.154 130.68 245.003 139.745C244.943 143.321 244.822 146.914 244.983 150.488C245.21 155.538 245.67 160.572 246.191 165.6C246.891 172.373 247.715 179.131 248.581 185.884C249.497 193.017 250.469 200.146 251.48 207.266C253.041 218.262 254.813 229.223 257.613 239.982C258.941 245.08 260.187 250.207 261.544 255.299C262.806 260.036 264.177 264.78 266.012 269.332C266.981 271.736 268.083 274.19 269.706 276.235C270.492 277.226 271.459 277.975 272.765 278.07C275.819 278.292 278.37 274.916 279.934 272.719C280.152 272.414 280.37 272.106 280.579 271.795C281.002 271.166 281.466 270.421 281.862 269.777C284.089 266.153 286.023 262.351 287.853 258.515C290.298 253.39 292.535 248.157 294.604 242.869C296.033 239.217 297.386 235.543 298.567 231.803C299.658 228.349 300.544 224.82 301.644 221.367C303.063 216.91 304.606 212.498 305.949 208.016C307.923 201.428 309.722 194.79 311.577 188.168C313.277 182.1 315.01 176.021 316.525 169.904C318.734 160.99 320.556 151.961 321.846 142.867C322.985 134.838 323.751 126.735 323.556 118.619C323.414 112.708 322.864 106.385 320.596 100.876C319.259 97.6279 317.238 94.6823 314.67 92.2834C313.139 90.853 311.432 89.6054 309.612 88.5729C307.676 87.4753 305.609 86.6107 303.493 85.9288ZM300.575 89.7389C302.947 90.3772 305.245 91.2825 307.384 92.4963C309.156 93.5007 310.808 94.7225 312.233 96.1812C316.167 100.208 317.713 105.36 318.471 110.818C318.869 113.686 319.034 116.591 319.078 119.486C319.196 127.103 318.457 134.7 317.384 142.233C316.111 151.175 314.322 160.048 312.147 168.812C310.746 174.454 309.147 180.062 307.576 185.659C305.605 192.68 303.696 199.732 301.595 206.715C300.255 211.17 298.722 215.567 297.306 219.998C295.6 225.335 294.224 230.733 292.31 236.005C290.473 241.067 288.421 246.05 286.243 250.975C284.096 255.828 281.824 260.652 279.188 265.261C277.963 267.404 276.663 269.534 275.095 271.449C274.583 272.074 273.985 272.77 273.274 273.221C271.996 271.53 271.097 269.542 270.311 267.587C269.299 265.068 268.44 262.499 267.66 259.9C266.081 254.635 264.826 249.285 263.495 243.955C262.74 240.933 261.881 237.939 261.16 234.909C258.942 225.576 257.459 216.119 256.119 206.627C255.276 200.655 254.461 194.677 253.681 188.697C252.734 181.419 251.837 174.129 251.063 166.831C250.458 161.134 249.883 155.417 249.659 149.69C249.579 147.636 249.658 145.587 249.684 143.534C249.725 140.349 249.761 137.167 249.903 133.985C250.288 125.408 251.158 116.718 253.516 108.436C254.805 103.907 256.557 99.2968 259.521 95.5771C261.094 93.6048 263.689 92.5536 265.928 91.5537C267.948 90.6509 270.02 89.8313 272.124 89.1516C273.315 88.7674 274.536 88.3809 275.781 88.2132C276.36 88.1355 276.949 88.1858 277.531 88.1906C278.521 88.1998 279.514 88.2133 280.505 88.2385C282.936 88.3015 285.374 88.3781 287.804 88.4826C288.426 88.5098 287.792 88.483 290.356 88.5996C290.64 88.6138 290.915 88.5587 291.172 88.4795C291.204 88.4793 291.361 88.4739 291.459 88.4747C292.132 88.4825 292.799 88.5131 293.469 88.5608C295.865 88.7338 298.256 89.1152 300.575 89.7389Z" fill="black"/>
<path d="M277.124 222.77C276.83 222.676 276.518 222.644 276.192 222.672C275.181 222.765 274.157 222.913 273.144 222.941C272.17 222.969 271.152 222.91 270.18 222.848C265.817 222.569 261.54 221.724 257.15 221.986C255.912 222.058 254.949 223.117 255.021 224.356C255.094 225.593 256.159 226.534 257.396 226.461C261.594 226.219 265.67 227.182 269.832 227.519C270.953 227.611 272.134 227.699 273.259 227.673C274.373 227.648 275.511 227.478 276.623 227.382C277.927 227.266 278.887 226.13 278.771 224.826C278.684 223.848 278.004 223.053 277.124 222.77Z" fill="black"/>
<path d="M306.403 193.769C304.221 193.899 301.994 193.682 299.82 193.525C296.308 193.271 292.821 192.888 289.331 192.418C287.454 192.165 285.571 191.895 283.714 191.515C282.629 191.294 281.498 191.07 280.489 190.597C279.3 190.048 277.879 190.559 277.331 191.748C276.783 192.937 277.315 194.362 278.504 194.911C280.226 195.696 282.114 196.047 283.967 196.374C286.507 196.824 289.074 197.117 291.639 197.374C294.686 197.68 297.751 197.927 300.808 198.101C302.757 198.212 304.721 198.366 306.672 198.25C307.91 198.177 308.852 197.112 308.778 195.874C308.705 194.637 307.641 193.695 306.403 193.769Z" fill="black"/>
<path d="M282.66 158.216C271.03 157.758 259.482 156.635 247.981 154.84C246.757 154.648 245.614 155.479 245.422 156.704C245.23 157.929 246.06 159.071 247.285 159.264C258.979 161.106 270.628 162.468 282.461 162.97C283.769 163.023 284.875 161.987 284.929 160.679C284.982 159.371 283.969 158.27 282.66 158.216Z" fill="black"/>
<path d="M319.337 127.499C313.073 126.782 306.762 126.38 300.473 125.945C295.008 125.567 289.541 125.123 284.067 124.917C282.828 124.869 281.796 125.836 281.749 127.075C281.701 128.315 282.663 129.369 283.902 129.416C290.233 129.664 296.552 130.224 302.864 130.754C308.174 131.198 313.493 131.596 318.786 132.219C320.087 132.369 321.271 131.435 321.421 130.134C321.572 128.833 320.637 127.65 319.337 127.499Z" fill="black"/>
<path d="M327.423 42.8798C326.314 42.6087 325.197 42.3946 324.067 42.2173C319.726 41.5363 315.133 40.8392 310.804 41.945C306.839 42.9577 303.507 45.3062 300.543 48.0564C298.766 49.7057 297.012 51.4188 295.516 53.3334C292.911 56.6673 290.974 60.5185 289.483 64.466C287.581 69.5033 286.352 74.8549 285.837 80.2153C285.736 81.2671 285.656 82.2105 285.604 83.2653C285.58 83.7619 285.06 84.6395 285.543 84.756C287.285 85.1756 285.552 84.7642 285.544 86.1891C285.537 87.4287 286.529 88.4202 287.769 88.427C289.009 88.434 290.023 87.4468 290.03 86.2072C289.799 85.9968 289.817 86.0429 289.647 85.9032C290.217 85.6494 290.689 85.1847 290.917 84.5507C290.62 84.6413 290.459 84.6274 290.219 84.6755C290.528 84.434 290.876 84.1629 291.112 84.0229C291.263 83.9335 291.228 83.7022 291.296 83.5408C291.366 83.3722 291.433 83.2073 291.507 83.0406C291.908 82.158 292.394 81.296 292.917 80.4793C294.261 78.3791 295.98 76.3994 298.116 75.0754C300.057 73.8724 302.414 73.2887 304.619 72.7933C309.001 71.8087 313.508 71.4569 317.879 70.4139C319.679 69.9842 321.385 69.2016 322.718 67.8875C323.189 68.6046 323.617 69.3488 324.157 70.0139C326.388 72.7562 329.95 73.6045 333.322 72.9136C334.9 72.5902 336.427 71.9546 337.784 71.0873C338.908 70.3679 339.935 69.4879 340.765 68.4383C344.813 63.3166 343.053 56.644 339.873 51.5606C338.926 50.0456 337.807 48.6227 336.494 47.4058C333.92 45.0182 330.752 43.6937 327.423 42.8798ZM323.349 46.7311C327.219 47.3487 331.096 48.3933 333.889 51.3126C334.67 52.1283 335.345 53.0294 335.941 53.9878C337.79 56.9635 339.504 61.0807 337.768 64.4921C336.666 66.6558 334.276 68.0841 331.912 68.4057C330.696 68.5712 329.352 68.4181 328.368 67.6276C327.865 67.224 327.46 66.6141 327.097 66.1133C326.682 65.5419 326.328 64.9245 325.962 64.3205C325.954 64.2827 325.958 64.271 325.955 64.2472C325.948 64.1779 325.937 64.1194 325.929 64.0501C325.917 63.9348 325.911 63.8207 325.89 63.7066C325.844 63.4534 325.837 63.1879 325.731 62.9532C325.535 62.5172 325.328 62.049 324.995 61.7068C324.69 61.3954 324.293 61.1911 323.884 61.042C323.537 60.9156 323.139 60.9064 322.77 60.9019C322.562 60.8993 322.367 60.9646 322.169 61.0244C320.713 61.461 319.994 63.0335 319.661 64.4047C319.078 65.0053 318.353 65.4197 317.537 65.6292C312.378 66.9517 307.023 67.2372 301.872 68.5946C299.955 69.0996 297.994 69.7131 296.252 70.6764C294.952 71.3951 293.772 72.3149 292.695 73.3345C292.136 73.8638 291.672 74.4961 291.166 75.0799C291.433 73.7489 291.714 72.4175 292.066 71.1103C293.446 66.0045 295.484 60.9116 298.661 56.6455C299.578 55.4151 300.626 54.3123 301.703 53.2226C303.244 51.6653 304.83 50.2357 306.577 48.913C308.62 47.3665 311.153 46.3309 313.696 46.0341C316.851 45.666 320.238 46.2346 323.349 46.7311Z" fill="black"/>
<path d="M266.002 37.1182C264.466 36.8877 262.904 36.7833 261.347 36.702C259.612 36.6115 257.857 36.541 256.12 36.5828C251.473 36.6947 247.024 37.7755 243.369 40.7764C238.327 44.9144 233.889 52.2887 236.866 58.845C237.197 59.5738 237.606 60.2537 238.083 60.896C238.882 61.9698 239.856 62.9105 240.944 63.688C244.617 66.3136 249.67 67.1188 253.298 63.9636C253.917 63.4262 254.438 62.7819 255.002 62.1873C255.014 62.2047 255.024 62.2256 255.037 62.2431C256.847 64.7074 259.916 65.6984 262.669 66.6963C266.291 68.0093 270.006 69.0707 273.514 70.6803C274.956 71.3416 276.464 72.0878 277.706 73.0899C279.94 74.8938 281.481 77.5301 282.502 80.1779C282.845 81.0672 283.136 81.9772 283.347 82.9068C283.386 83.0779 283.294 83.3881 283.463 83.4351C285.241 83.929 283.462 83.4174 283.556 83.9582C283.733 84.9738 284.533 85.7265 285.494 85.8907C285.779 86.0873 286.015 86.337 286.382 86.3843C287.612 86.5417 288.749 85.6947 288.907 84.4645C288.422 84.4208 288.354 84.4862 288.016 84.4961C288.178 84.131 288.26 83.7451 288.218 83.3248C288.523 83.2645 288.878 83.2532 289.088 83.0743C289.452 82.7619 289.186 82.1281 289.228 81.6497C289.361 80.1772 289.446 78.6952 289.473 77.217C289.557 72.6189 289.176 67.9861 288.231 63.4817C287.419 59.6024 286.192 55.7669 284.3 52.2722C283.172 50.1902 281.755 48.2584 280.323 46.3781C277.705 42.9381 274.584 39.9009 270.507 38.2871C269.044 37.708 267.538 37.3485 266.002 37.1182ZM267.164 41.9742C270.79 42.8911 273.619 45.2551 275.961 48.0841C276.798 49.095 277.549 50.2034 278.298 51.2796C279.256 52.6567 280.153 54.0258 280.888 55.5371C283.498 60.9016 284.585 66.9574 284.895 72.8784C284.923 73.4077 284.845 73.9401 284.859 74.4701C284.223 73.4264 283.59 72.3751 282.791 71.4566C280.794 69.159 278.237 67.6462 275.493 66.3887C272.113 64.8394 268.554 63.75 265.051 62.5225C263.483 61.9731 261.85 61.4343 260.371 60.6679C259.683 60.3111 259.117 59.8364 258.684 59.2C258.593 57.7894 258.175 56.1257 256.812 55.4442C256.626 55.3511 256.427 55.2441 256.221 55.211C255.858 55.1523 255.473 55.1016 255.11 55.1669C254.681 55.2438 254.257 55.3717 253.904 55.6263C253.516 55.9061 253.225 56.3233 252.957 56.7192C252.811 56.9334 252.655 57.469 252.567 57.7747C252.546 57.8487 252.535 57.9271 252.514 58.0012C251.765 58.8478 251.035 59.6613 250.184 60.4196C249.978 60.6027 249.788 60.7599 249.548 60.8925C248.289 61.5874 246.757 61.3773 245.468 60.8732C243.261 60.01 241.298 58.1522 240.726 55.8039C240.17 53.5175 240.983 51.1681 242.144 49.2082C243.956 46.1505 246.702 43.3785 250.093 42.1522C253.261 41.0072 256.743 41.0694 260.059 41.2023C262.429 41.2975 264.852 41.3897 267.164 41.9742Z" fill="black"/>
<path d="M306.709 30.4107C301.812 29.5959 296.505 31.4654 293.539 35.5815C289.08 41.7691 288.504 49.4927 287.543 56.8014C286.975 61.1201 286.319 65.3799 286.318 69.7471C286.317 70.9869 287.32 72.0123 288.561 72.013C289.8 72.0134 290.803 71.0051 290.804 69.7653C290.807 65.1682 291.588 60.6587 292.17 56.1123C292.923 50.2258 293.513 43.942 296.903 38.8732C297.575 37.8681 298.368 36.9893 299.384 36.3227C302.223 34.4618 306.425 34.4193 309.236 36.3733C311.82 38.1695 313.542 41.2278 314.412 44.1948C314.782 45.4508 316.098 46.1824 317.354 45.8118C318.61 45.4414 319.342 44.1251 318.971 42.869C317.73 38.6817 315.152 34.4766 311.368 32.1414C309.929 31.2531 308.341 30.6824 306.709 30.4107Z" fill="black"/>
<path d="M288.398 65.7417C287.906 65.4433 287.297 65.3171 286.695 65.4642C285.491 65.7585 284.764 66.983 285.058 68.1875C285.63 70.5302 285.314 72.9334 285.33 75.3202C285.35 78.2483 285.381 81.1345 285.087 84.0527C284.959 85.3559 285.901 86.5207 287.204 86.6478C288.507 86.7742 289.677 85.8103 289.805 84.507C290.002 82.4162 290.09 80.3351 290.049 78.2348C290.02 76.8196 289.903 75.4099 289.89 73.9945C289.868 71.6506 289.973 69.4183 289.413 67.1246C289.266 66.5223 288.889 66.0398 288.398 65.7417Z" fill="black"/>
<path d="M283.53 30.67C282.365 30.2796 281.172 30.0163 279.952 29.932C276.544 29.6962 273.064 30.6373 270.123 32.3466C267.865 33.6588 265.656 35.5002 264.656 37.9749C264.174 39.1924 264.775 40.5743 265.992 41.0564C267.209 41.5386 268.591 40.9381 269.074 39.7206C269.711 38.0402 271.94 36.6539 273.47 35.9207C277.911 33.792 282.833 34.2478 286.358 37.8012C287.006 38.4542 287.674 39.1903 288.087 40.0191C288.605 41.0592 288.762 42.2454 288.829 43.3924C288.95 45.4736 288.692 47.5475 288.455 49.6102C287.888 54.552 287.422 59.5107 286.65 64.4268C286.458 65.6518 287.312 66.7993 288.536 66.9919C289.761 67.1847 290.903 66.3533 291.096 65.1284C291.881 60.1545 292.343 55.1514 292.937 50.1532C293.43 46.0153 294.121 41.2855 291.95 37.4802C290.126 34.2837 287.024 31.8412 283.53 30.67Z" fill="black"/>
</g>
</g>
<path id="hill_part" d="M197.775 192.721L277.816 296.663L299.767 293.218L334.36 171.284L197.775 192.721Z" fill="#77AF7C"/>
</g>
<path id="Vector 4" d="M364 291.764C340 300.764 244 304.764 212 299.764C180 294.764 75.0001 255.764 54.0001 214.764C33.0001 173.764 39.4238 145.132 56.0001 118.764C73.3248 91.2066 101 64.7644 148 46.7644C195 28.7644 195 28.7644 220 25.7644C245 22.7644 324 18.7644 370 39.7644C416 60.7644 454.397 78.3975 472 106.765C486.438 130.031 501.15 166.14 487 192.765C472.557 219.942 457 233.431 451 236.765L385 195.765C384.333 198.431 384.8 200.565 392 187.765C401 171.765 403.004 166.99 397 144.765C392.913 129.634 375.432 114.919 363.452 106.578C343.602 92.7572 300.28 73.2653 222.326 87.2814C196.933 91.8471 168.753 100.173 157.865 118.746C150.014 132.139 136.859 138.023 140.573 166.14C145.056 200.084 224.473 238.512 259 236.765C313.848 233.989 317 232.765 336 227.765" stroke="black" stroke-width="2"/>
<g id="hole_26">
<ellipse id="Ellipse" cx="328" cy="222.765" rx="26" ry="16" fill="#DEC474"/>
<g id="26">
<path d="M319.325 228.364V227.548L323.981 222.988C324.407 222.572 324.727 222.21 324.941 221.9C325.154 221.58 325.298 221.282 325.373 221.004C325.447 220.727 325.485 220.466 325.485 220.22C325.485 219.57 325.261 219.058 324.813 218.684C324.375 218.311 323.725 218.124 322.861 218.124C322.199 218.124 321.613 218.226 321.101 218.428C320.599 218.631 320.167 218.946 319.805 219.372L318.989 218.668C319.426 218.156 319.986 217.762 320.669 217.484C321.351 217.207 322.114 217.068 322.957 217.068C323.714 217.068 324.37 217.191 324.925 217.436C325.479 217.671 325.906 218.018 326.205 218.476C326.514 218.935 326.669 219.474 326.669 220.092C326.669 220.455 326.615 220.812 326.509 221.164C326.413 221.516 326.231 221.89 325.965 222.284C325.709 222.668 325.33 223.106 324.829 223.596L320.557 227.788L320.237 227.34H327.181V228.364H319.325Z" fill="black"/>
<path d="M333.187 228.46C332.195 228.46 331.358 228.242 330.675 227.804C329.993 227.356 329.475 226.716 329.123 225.884C328.771 225.042 328.595 224.034 328.595 222.86C328.595 221.591 328.809 220.53 329.235 219.676C329.673 218.812 330.275 218.162 331.043 217.724C331.811 217.287 332.702 217.068 333.715 217.068C334.217 217.068 334.697 217.116 335.155 217.212C335.614 217.308 336.019 217.463 336.371 217.676L335.907 218.604C335.619 218.412 335.289 218.279 334.915 218.204C334.542 218.119 334.147 218.076 333.731 218.076C332.526 218.076 331.561 218.46 330.835 219.228C330.121 219.996 329.763 221.143 329.763 222.668C329.763 222.903 329.774 223.196 329.795 223.548C329.827 223.89 329.891 224.231 329.987 224.572L329.587 224.268C329.705 223.714 329.934 223.244 330.275 222.86C330.617 222.466 331.043 222.167 331.555 221.964C332.067 221.762 332.627 221.66 333.235 221.66C333.982 221.66 334.638 221.799 335.203 222.076C335.769 222.354 336.211 222.743 336.531 223.244C336.851 223.746 337.011 224.338 337.011 225.02C337.011 225.714 336.846 226.322 336.515 226.844C336.185 227.356 335.726 227.756 335.139 228.044C334.563 228.322 333.913 228.46 333.187 228.46ZM333.139 227.484C333.673 227.484 334.142 227.388 334.547 227.196C334.963 226.994 335.289 226.711 335.523 226.348C335.758 225.975 335.875 225.543 335.875 225.052C335.875 224.316 335.619 223.73 335.107 223.292C334.606 222.855 333.923 222.636 333.059 222.636C332.483 222.636 331.982 222.743 331.555 222.956C331.129 223.17 330.793 223.463 330.547 223.836C330.302 224.199 330.179 224.615 330.179 225.084C330.179 225.49 330.291 225.879 330.515 226.252C330.739 226.615 331.07 226.914 331.507 227.148C331.955 227.372 332.499 227.484 333.139 227.484Z" fill="black"/>
</g>
</g>
<g id="hole_25">
<ellipse id="Ellipse_2" cx="258" cy="233.765" rx="26" ry="16" fill="#DEC474"/>
<g id="25">
<path d="M249.717 239.364V238.548L254.373 233.988C254.8 233.572 255.12 233.21 255.333 232.9C255.546 232.58 255.69 232.282 255.765 232.004C255.84 231.727 255.877 231.466 255.877 231.22C255.877 230.57 255.653 230.058 255.205 229.684C254.768 229.311 254.117 229.124 253.253 229.124C252.592 229.124 252.005 229.226 251.493 229.428C250.992 229.631 250.56 229.946 250.197 230.372L249.381 229.668C249.818 229.156 250.378 228.762 251.061 228.484C251.744 228.207 252.506 228.068 253.349 228.068C254.106 228.068 254.762 228.191 255.317 228.436C255.872 228.671 256.298 229.018 256.597 229.476C256.906 229.935 257.061 230.474 257.061 231.092C257.061 231.455 257.008 231.812 256.901 232.164C256.805 232.516 256.624 232.89 256.357 233.284C256.101 233.668 255.722 234.106 255.221 234.596L250.949 238.788L250.629 238.34H257.573V239.364H249.717Z" fill="black"/>
<path d="M262.555 239.46C261.755 239.46 260.992 239.332 260.267 239.076C259.542 238.81 258.966 238.458 258.539 238.02L259.099 237.108C259.451 237.482 259.931 237.791 260.539 238.036C261.158 238.282 261.824 238.404 262.539 238.404C263.488 238.404 264.208 238.196 264.699 237.78C265.2 237.354 265.451 236.799 265.451 236.116C265.451 235.636 265.334 235.226 265.099 234.884C264.875 234.532 264.491 234.26 263.947 234.068C263.403 233.876 262.656 233.78 261.707 233.78H259.323L259.899 228.164H266.027V229.188H260.363L260.955 228.628L260.459 233.332L259.867 232.756H261.963C263.094 232.756 264 232.895 264.683 233.172C265.366 233.45 265.856 233.839 266.155 234.34C266.464 234.831 266.619 235.407 266.619 236.068C266.619 236.698 266.47 237.274 266.171 237.796C265.872 238.308 265.424 238.714 264.827 239.012C264.23 239.311 263.472 239.46 262.555 239.46Z" fill="black"/>
</g>
</g>
<g id="hole_24">
<ellipse id="Ellipse_3" cx="188" cy="215.765" rx="26" ry="16" fill="#DEC474"/>
<g id="24">
<path d="M178.937 221.413V220.597L183.593 216.037C184.019 215.621 184.339 215.258 184.553 214.949C184.766 214.629 184.91 214.33 184.985 214.053C185.059 213.775 185.097 213.514 185.097 213.269C185.097 212.618 184.873 212.106 184.425 211.733C183.987 211.359 183.337 211.173 182.473 211.173C181.811 211.173 181.225 211.274 180.713 211.477C180.211 211.679 179.779 211.994 179.417 212.421L178.601 211.717C179.038 211.205 179.598 210.81 180.281 210.533C180.963 210.255 181.726 210.117 182.569 210.117C183.326 210.117 183.982 210.239 184.537 210.485C185.091 210.719 185.518 211.066 185.817 211.525C186.126 211.983 186.281 212.522 186.281 213.141C186.281 213.503 186.227 213.861 186.121 214.213C186.025 214.565 185.843 214.938 185.577 215.333C185.321 215.717 184.942 216.154 184.441 216.645L180.169 220.837L179.849 220.389H186.793V221.413H178.937Z" fill="black"/>
<path d="M187.687 218.469V217.637L193.623 210.213H194.903L189.015 217.637L188.391 217.445H197.399V218.469H187.687ZM194.007 221.413V218.469L194.039 217.445V214.853H195.159V221.413H194.007Z" fill="black"/>
</g>
</g>
<g id="hole_23">
<ellipse id="Ellipse_4" cx="141" cy="165.765" rx="26" ry="16" fill="#DEC474"/>
<g id="23">
<path d="M132.813 171.364V170.548L137.469 165.988C137.896 165.572 138.216 165.21 138.429 164.9C138.642 164.58 138.786 164.282 138.861 164.004C138.936 163.727 138.973 163.466 138.973 163.22C138.973 162.57 138.749 162.058 138.301 161.684C137.864 161.311 137.213 161.124 136.349 161.124C135.688 161.124 135.101 161.226 134.589 161.428C134.088 161.631 133.656 161.946 133.293 162.372L132.477 161.668C132.914 161.156 133.474 160.762 134.157 160.484C134.84 160.207 135.602 160.068 136.445 160.068C137.202 160.068 137.858 160.191 138.413 160.436C138.968 160.671 139.394 161.018 139.693 161.476C140.002 161.935 140.157 162.474 140.157 163.092C140.157 163.455 140.104 163.812 139.997 164.164C139.901 164.516 139.72 164.89 139.453 165.284C139.197 165.668 138.818 166.106 138.317 166.596L134.045 170.788L133.725 170.34H140.669V171.364H132.813Z" fill="black"/>
<path d="M145.459 171.46C144.648 171.46 143.88 171.332 143.155 171.076C142.44 170.81 141.864 170.458 141.427 170.02L141.987 169.108C142.35 169.482 142.835 169.791 143.443 170.036C144.062 170.282 144.734 170.404 145.459 170.404C146.387 170.404 147.096 170.202 147.587 169.796C148.088 169.391 148.339 168.847 148.339 168.164C148.339 167.482 148.094 166.938 147.603 166.532C147.123 166.127 146.36 165.924 145.315 165.924H144.515V165.076L147.971 160.74L148.131 161.188H141.891V160.164H149.091V160.98L145.635 165.316L145.075 164.948H145.507C146.851 164.948 147.854 165.247 148.515 165.844C149.187 166.442 149.523 167.21 149.523 168.148C149.523 168.778 149.374 169.343 149.075 169.844C148.776 170.346 148.323 170.74 147.715 171.028C147.118 171.316 146.366 171.46 145.459 171.46Z" fill="black"/>
</g>
</g>
<g id="hole_22">
<ellipse id="Ellipse_5" cx="159" cy="115.765" rx="26" ry="16" fill="#DEC474"/>
<g id="22">
<path d="M150.693 121.413V120.597L155.349 116.037C155.776 115.621 156.096 115.258 156.309 114.949C156.522 114.629 156.666 114.33 156.741 114.053C156.816 113.775 156.853 113.514 156.853 113.269C156.853 112.618 156.629 112.106 156.181 111.733C155.744 111.359 155.093 111.173 154.229 111.173C153.568 111.173 152.981 111.274 152.469 111.477C151.968 111.679 151.536 111.994 151.173 112.421L150.357 111.717C150.794 111.205 151.354 110.81 152.037 110.533C152.72 110.255 153.482 110.117 154.325 110.117C155.082 110.117 155.738 110.239 156.293 110.485C156.848 110.719 157.274 111.066 157.573 111.525C157.882 111.983 158.037 112.522 158.037 113.141C158.037 113.503 157.984 113.861 157.877 114.213C157.781 114.565 157.6 114.938 157.333 115.333C157.077 115.717 156.698 116.154 156.197 116.645L151.925 120.837L151.605 120.389H158.549V121.413H150.693Z" fill="black"/>
<path d="M159.787 121.413V120.597L164.443 116.037C164.87 115.621 165.19 115.258 165.403 114.949C165.616 114.629 165.76 114.33 165.835 114.053C165.91 113.775 165.947 113.514 165.947 113.269C165.947 112.618 165.723 112.106 165.275 111.733C164.838 111.359 164.187 111.173 163.323 111.173C162.662 111.173 162.075 111.274 161.563 111.477C161.062 111.679 160.63 111.994 160.267 112.421L159.451 111.717C159.888 111.205 160.448 110.81 161.131 110.533C161.814 110.255 162.576 110.117 163.419 110.117C164.176 110.117 164.832 110.239 165.387 110.485C165.942 110.719 166.368 111.066 166.667 111.525C166.976 111.983 167.131 112.522 167.131 113.141C167.131 113.503 167.078 113.861 166.971 114.213C166.875 114.565 166.694 114.938 166.427 115.333C166.171 115.717 165.792 116.154 165.291 116.645L161.019 120.837L160.699 120.389H167.643V121.413H159.787Z" fill="black"/>
</g>
</g>
<g id="hole_21">
<ellipse id="Ellipse_6" cx="219" cy="87.7646" rx="26" ry="16" fill="#DEC474"/>
<g id="21">
<path d="M212.965 93.4127V92.5967L217.621 88.0367C218.048 87.6207 218.368 87.258 218.581 86.9487C218.794 86.6287 218.938 86.33 219.013 86.0527C219.088 85.7754 219.125 85.514 219.125 85.2687C219.125 84.618 218.901 84.106 218.453 83.7327C218.016 83.3594 217.365 83.1727 216.501 83.1727C215.84 83.1727 215.253 83.274 214.741 83.4767C214.24 83.6794 213.808 83.994 213.445 84.4207L212.629 83.7167C213.066 83.2047 213.626 82.81 214.309 82.5327C214.992 82.2554 215.754 82.1167 216.597 82.1167C217.354 82.1167 218.01 82.2394 218.565 82.4847C219.12 82.7194 219.546 83.066 219.845 83.5247C220.154 83.9834 220.309 84.522 220.309 85.1407C220.309 85.5034 220.256 85.8607 220.149 86.2127C220.053 86.5647 219.872 86.938 219.605 87.3327C219.349 87.7167 218.97 88.154 218.469 88.6447L214.197 92.8367L213.877 92.3887H220.821V93.4127H212.965Z" fill="black"/>
<path d="M224.219 93.4127V82.6927L224.731 83.2367H221.579V82.2127H225.371V93.4127H224.219Z" fill="black"/>
</g>
</g>
<g id="hole_20">
<ellipse id="Ellipse_7" cx="358" cy="106.765" rx="26" ry="16" fill="#DEC474"/>
<g id="20">
<path d="M349.061 112.364V111.548L353.717 106.988C354.143 106.572 354.463 106.21 354.677 105.9C354.89 105.58 355.034 105.282 355.109 105.004C355.183 104.727 355.221 104.466 355.221 104.22C355.221 103.57 354.997 103.058 354.549 102.684C354.111 102.311 353.461 102.124 352.597 102.124C351.935 102.124 351.349 102.226 350.837 102.428C350.335 102.631 349.903 102.946 349.541 103.372L348.725 102.668C349.162 102.156 349.722 101.762 350.405 101.484C351.087 101.207 351.85 101.068 352.693 101.068C353.45 101.068 354.106 101.191 354.661 101.436C355.215 101.671 355.642 102.018 355.941 102.476C356.25 102.935 356.405 103.474 356.405 104.092C356.405 104.455 356.351 104.812 356.245 105.164C356.149 105.516 355.967 105.89 355.701 106.284C355.445 106.668 355.066 107.106 354.565 107.596L350.293 111.788L349.973 111.34H356.917V112.364H349.061Z" fill="black"/>
<path d="M362.795 112.46C361.931 112.46 361.163 112.236 360.491 111.788C359.819 111.33 359.291 110.679 358.907 109.836C358.523 108.983 358.331 107.959 358.331 106.764C358.331 105.57 358.523 104.551 358.907 103.708C359.291 102.855 359.819 102.204 360.491 101.756C361.163 101.298 361.931 101.068 362.795 101.068C363.659 101.068 364.427 101.298 365.099 101.756C365.771 102.204 366.299 102.855 366.683 103.708C367.078 104.551 367.275 105.57 367.275 106.764C367.275 107.959 367.078 108.983 366.683 109.836C366.299 110.679 365.771 111.33 365.099 111.788C364.427 112.236 363.659 112.46 362.795 112.46ZM362.795 111.404C363.457 111.404 364.033 111.228 364.523 110.876C365.014 110.514 365.398 109.991 365.675 109.308C365.953 108.615 366.091 107.767 366.091 106.764C366.091 105.762 365.953 104.919 365.675 104.236C365.398 103.543 365.014 103.02 364.523 102.668C364.033 102.306 363.457 102.124 362.795 102.124C362.155 102.124 361.585 102.306 361.083 102.668C360.582 103.02 360.193 103.543 359.915 104.236C359.638 104.919 359.499 105.762 359.499 106.764C359.499 107.767 359.638 108.615 359.915 109.308C360.193 109.991 360.582 110.514 361.083 110.876C361.585 111.228 362.155 111.404 362.795 111.404Z" fill="black"/>
</g>
</g>
<g id="hole_19">
<ellipse id="Ellipse_8" cx="401" cy="145.765" rx="26" ry="16" fill="#DEC474"/>
<g id="19">
<path d="M396.365 151.364V140.644L396.877 141.188H393.725V140.164H397.517V151.364H396.365Z" fill="black"/>
<path d="M403.683 140.068C404.675 140.068 405.512 140.292 406.195 140.74C406.877 141.178 407.395 141.812 407.747 142.644C408.099 143.476 408.275 144.484 408.275 145.668C408.275 146.927 408.056 147.988 407.619 148.852C407.192 149.716 406.595 150.367 405.827 150.804C405.059 151.242 404.168 151.46 403.155 151.46C402.653 151.46 402.173 151.412 401.715 151.316C401.267 151.22 400.861 151.066 400.499 150.852L400.963 149.924C401.251 150.116 401.581 150.255 401.955 150.34C402.339 150.415 402.733 150.452 403.139 150.452C404.344 150.452 405.304 150.068 406.019 149.3C406.744 148.532 407.107 147.386 407.107 145.86C407.107 145.615 407.091 145.322 407.059 144.98C407.037 144.639 406.979 144.298 406.883 143.956L407.283 144.26C407.176 144.815 406.947 145.29 406.595 145.684C406.253 146.068 405.827 146.362 405.315 146.564C404.813 146.767 404.253 146.868 403.635 146.868C402.899 146.868 402.243 146.73 401.667 146.452C401.101 146.175 400.659 145.786 400.339 145.284C400.019 144.783 399.859 144.191 399.859 143.508C399.859 142.804 400.024 142.196 400.355 141.684C400.685 141.172 401.139 140.778 401.715 140.5C402.301 140.212 402.957 140.068 403.683 140.068ZM403.731 141.044C403.197 141.044 402.723 141.146 402.307 141.348C401.901 141.54 401.581 141.818 401.347 142.18C401.112 142.543 400.995 142.975 400.995 143.476C400.995 144.212 401.245 144.799 401.747 145.236C402.259 145.674 402.947 145.892 403.811 145.892C404.387 145.892 404.888 145.786 405.315 145.572C405.752 145.359 406.088 145.066 406.323 144.692C406.568 144.319 406.691 143.903 406.691 143.444C406.691 143.028 406.579 142.639 406.355 142.276C406.131 141.914 405.8 141.62 405.363 141.396C404.925 141.162 404.381 141.044 403.731 141.044Z" fill="black"/>
</g>
</g>
<g id="hole_18">
<ellipse id="Ellipse_9" cx="385" cy="194.765" rx="26" ry="16" fill="#DEC474"/>
<g id="18">
<path d="M379.828 200.098V189.378L380.336 189.922H377.211V188.898H380.971V200.098H379.828Z" fill="black"/>
<path d="M387.845 200.194C386.957 200.194 386.19 200.066 385.545 199.81C384.91 199.554 384.418 199.186 384.069 198.706C383.731 198.215 383.562 197.639 383.562 196.978C383.562 196.338 383.726 195.794 384.053 195.346C384.392 194.887 384.878 194.535 385.513 194.29C386.158 194.044 386.935 193.922 387.845 193.922C388.744 193.922 389.516 194.044 390.161 194.29C390.806 194.535 391.298 194.887 391.637 195.346C391.986 195.794 392.16 196.338 392.16 196.978C392.16 197.639 391.986 198.215 391.637 198.706C391.288 199.186 390.791 199.554 390.145 199.81C389.5 200.066 388.733 200.194 387.845 200.194ZM387.845 199.218C388.829 199.218 389.595 199.015 390.145 198.61C390.706 198.204 390.986 197.655 390.986 196.962C390.986 196.268 390.706 195.724 390.145 195.33C389.595 194.924 388.829 194.722 387.845 194.722C386.861 194.722 386.095 194.924 385.545 195.33C384.995 195.724 384.72 196.268 384.72 196.962C384.72 197.655 384.995 198.204 385.545 198.61C386.095 199.015 386.861 199.218 387.845 199.218ZM387.845 194.578C387.02 194.578 386.317 194.466 385.735 194.242C385.164 194.018 384.725 193.698 384.418 193.282C384.112 192.855 383.958 192.348 383.958 191.762C383.958 191.143 384.117 190.615 384.434 190.178C384.762 189.73 385.217 189.388 385.799 189.154C386.38 188.919 387.062 188.802 387.845 188.802C388.628 188.802 389.31 188.919 389.892 189.154C390.484 189.388 390.944 189.73 391.272 190.178C391.6 190.615 391.764 191.143 391.764 191.762C391.764 192.348 391.61 192.855 391.303 193.282C390.997 193.698 390.547 194.018 389.955 194.242C389.373 194.466 388.67 194.578 387.845 194.578ZM387.845 193.81C388.712 193.81 389.389 193.628 389.876 193.266C390.362 192.903 390.605 192.418 390.605 191.81C390.605 191.17 390.352 190.674 389.844 190.322C389.347 189.959 388.681 189.778 387.845 189.778C387.01 189.778 386.343 189.959 385.846 190.322C385.349 190.674 385.101 191.164 385.101 191.794C385.101 192.412 385.338 192.903 385.814 193.266C386.301 193.628 386.978 193.81 387.845 193.81Z" fill="black"/>
</g>
</g>
<g id="hole_17">
<ellipse id="Ellipse_10" cx="451" cy="234.765" rx="26" ry="16" fill="#DEC474"/>
<g id="17">
<path d="M446.453 240.365V229.645L446.965 230.189H443.813V229.165H447.605V240.365H446.453Z" fill="black"/>
<path d="M452.251 240.365L457.083 229.677L457.435 230.189H450.507L451.099 229.629V232.285H449.963V229.165H458.187V229.981L453.499 240.365H452.251Z" fill="black"/>
</g>
</g>
<g id="hole_16">
<ellipse id="Ellipse_11" cx="485" cy="193.765" rx="26" ry="16" fill="#DEC474"/>
<g id="16">
<path d="M480.197 199.364V188.644L480.709 189.188H477.557V188.164H481.349V199.364H480.197Z" fill="black"/>
<path d="M488.619 199.46C487.627 199.46 486.789 199.242 486.107 198.804C485.424 198.356 484.907 197.716 484.555 196.884C484.203 196.042 484.027 195.034 484.027 193.86C484.027 192.591 484.24 191.53 484.667 190.676C485.104 189.812 485.707 189.162 486.475 188.724C487.243 188.287 488.133 188.068 489.147 188.068C489.648 188.068 490.128 188.116 490.587 188.212C491.045 188.308 491.451 188.463 491.803 188.676L491.339 189.604C491.051 189.412 490.72 189.279 490.347 189.204C489.973 189.119 489.579 189.076 489.163 189.076C487.957 189.076 486.992 189.46 486.267 190.228C485.552 190.996 485.195 192.143 485.195 193.668C485.195 193.903 485.205 194.196 485.227 194.548C485.259 194.89 485.323 195.231 485.419 195.572L485.019 195.268C485.136 194.714 485.365 194.244 485.707 193.86C486.048 193.466 486.475 193.167 486.987 192.964C487.499 192.762 488.059 192.66 488.667 192.66C489.413 192.66 490.069 192.799 490.635 193.076C491.2 193.354 491.643 193.743 491.963 194.244C492.283 194.746 492.443 195.338 492.443 196.02C492.443 196.714 492.277 197.322 491.947 197.844C491.616 198.356 491.157 198.756 490.571 199.044C489.995 199.322 489.344 199.46 488.619 199.46ZM488.571 198.484C489.104 198.484 489.573 198.388 489.979 198.196C490.395 197.994 490.72 197.711 490.955 197.348C491.189 196.975 491.307 196.543 491.307 196.052C491.307 195.316 491.051 194.73 490.539 194.292C490.037 193.855 489.355 193.636 488.491 193.636C487.915 193.636 487.413 193.743 486.987 193.956C486.56 194.17 486.224 194.463 485.979 194.836C485.733 195.199 485.611 195.615 485.611 196.084C485.611 196.49 485.723 196.879 485.947 197.252C486.171 197.615 486.501 197.914 486.939 198.148C487.387 198.372 487.931 198.484 488.571 198.484Z" fill="black"/>
</g>
</g>
<g id="hole_15">
<ellipse id="Ellipse_12" cx="494" cy="149.764" rx="26" ry="16" fill="#DEC474"/>
<g id="15">
<path d="M489.605 155.316V144.596L490.117 145.14H486.965V144.116H490.757V155.316H489.605Z" fill="black"/>
<path d="M496.971 155.412C496.171 155.412 495.408 155.284 494.683 155.028C493.957 154.762 493.381 154.41 492.955 153.972L493.515 153.06C493.867 153.434 494.347 153.743 494.955 153.988C495.573 154.234 496.24 154.356 496.955 154.356C497.904 154.356 498.624 154.148 499.115 153.732C499.616 153.306 499.867 152.751 499.867 152.068C499.867 151.588 499.749 151.178 499.515 150.836C499.291 150.484 498.907 150.212 498.363 150.02C497.819 149.828 497.072 149.732 496.123 149.732H493.739L494.315 144.116H500.443V145.14H494.779L495.371 144.58L494.875 149.284L494.283 148.708H496.379C497.509 148.708 498.416 148.847 499.099 149.124C499.781 149.402 500.272 149.791 500.571 150.292C500.88 150.783 501.035 151.359 501.035 152.02C501.035 152.65 500.885 153.226 500.587 153.748C500.288 154.26 499.84 154.666 499.243 154.964C498.645 155.263 497.888 155.412 496.971 155.412Z" fill="black"/>
</g>
</g>
<g id="hole_14">
<ellipse id="Ellipse_13" cx="472" cy="105.765" rx="26" ry="16" fill="#DEC474"/>
<g id="14">
<path d="M466.284 111.764V101.044L466.796 101.588H463.644V100.564H467.436V111.764H466.284Z" fill="black"/>
<path d="M469.921 108.82V107.988L475.857 100.564H477.137L471.249 107.988L470.625 107.796H479.633V108.82H469.921ZM476.241 111.764V108.82L476.273 107.796V105.204H477.393V111.764H476.241Z" fill="black"/>
</g>
</g>
<g id="hole_13">
<ellipse id="Ellipse_14" cx="422" cy="67.7646" rx="26" ry="16" fill="#DEC474"/>
<g id="13">
<path d="M417.701 73.3167V62.5967L418.213 63.1407H415.061V62.1167H418.853V73.3167H417.701Z" fill="black"/>
<path d="M424.875 73.4127C424.064 73.4127 423.296 73.2847 422.571 73.0287C421.856 72.762 421.28 72.41 420.843 71.9727L421.403 71.0607C421.765 71.434 422.251 71.7434 422.859 71.9887C423.477 72.234 424.149 72.3567 424.875 72.3567C425.803 72.3567 426.512 72.154 427.003 71.7487C427.504 71.3434 427.755 70.7994 427.755 70.1167C427.755 69.434 427.509 68.89 427.019 68.4847C426.539 68.0794 425.776 67.8767 424.731 67.8767H423.931V67.0287L427.387 62.6927L427.547 63.1407H421.307V62.1167H428.507V62.9327L425.051 67.2687L424.491 66.9007H424.923C426.267 66.9007 427.269 67.1994 427.931 67.7967C428.603 68.394 428.939 69.162 428.939 70.1007C428.939 70.73 428.789 71.2954 428.491 71.7967C428.192 72.298 427.739 72.6927 427.131 72.9807C426.533 73.2687 425.781 73.4127 424.875 73.4127Z" fill="black"/>
</g>
</g>
<g id="hole_12">
<ellipse id="Ellipse_15" cx="368" cy="38.7646" rx="26" ry="16" fill="#DEC474"/>
<g id="12">
<path d="M363.581 44.4127V33.6927L364.093 34.2367H360.941V33.2127H364.733V44.4127H363.581Z" fill="black"/>
<path d="M367.203 44.4127V43.5967L371.859 39.0367C372.285 38.6207 372.605 38.258 372.819 37.9487C373.032 37.6287 373.176 37.33 373.251 37.0527C373.325 36.7754 373.363 36.514 373.363 36.2687C373.363 35.618 373.139 35.106 372.691 34.7327C372.253 34.3594 371.603 34.1727 370.739 34.1727C370.077 34.1727 369.491 34.274 368.979 34.4767C368.477 34.6794 368.045 34.994 367.683 35.4207L366.867 34.7167C367.304 34.2047 367.864 33.81 368.547 33.5327C369.229 33.2554 369.992 33.1167 370.835 33.1167C371.592 33.1167 372.248 33.2394 372.803 33.4847C373.357 33.7194 373.784 34.066 374.083 34.5247C374.392 34.9834 374.547 35.522 374.547 36.1407C374.547 36.5034 374.493 36.8607 374.387 37.2127C374.291 37.5647 374.109 37.938 373.843 38.3327C373.587 38.7167 373.208 39.154 372.707 39.6447L368.435 43.8367L368.115 43.3887H375.059V44.4127H367.203Z" fill="black"/>
</g>
</g>
<g id="hole_11">
<ellipse id="Ellipse_16" cx="210" cy="27.7646" rx="26" ry="16" fill="#DEC474"/>
<g id="11">
<path d="M207.853 33.3646V22.6446L208.365 23.1886H205.213V22.1646H209.005V33.3646H207.853Z" fill="black"/>
<path d="M213.635 33.3646V22.6446L214.147 23.1886H210.995V22.1646H214.787V33.3646H213.635Z" fill="black"/>
</g>
</g>
<g id="hole_10">
<ellipse id="Ellipse_17" cx="150" cy="46.7646" rx="26" ry="16" fill="#DEC474"/>
<g id="10">
<path d="M144.933 52.3644V41.6444L145.445 42.1884H142.293V41.1644H146.085V52.3644H144.933Z" fill="black"/>
<path d="M153.227 52.4604C152.363 52.4604 151.595 52.2364 150.923 51.7884C150.251 51.3297 149.723 50.679 149.339 49.8364C148.955 48.983 148.763 47.959 148.763 46.7644C148.763 45.5697 148.955 44.551 149.339 43.7084C149.723 42.855 150.251 42.2044 150.923 41.7564C151.595 41.2977 152.363 41.0684 153.227 41.0684C154.091 41.0684 154.859 41.2977 155.531 41.7564C156.203 42.2044 156.731 42.855 157.115 43.7084C157.509 44.551 157.707 45.5697 157.707 46.7644C157.707 47.959 157.509 48.983 157.115 49.8364C156.731 50.679 156.203 51.3297 155.531 51.7884C154.859 52.2364 154.091 52.4604 153.227 52.4604ZM153.227 51.4044C153.888 51.4044 154.464 51.2284 154.955 50.8764C155.445 50.5137 155.829 49.991 156.107 49.3084C156.384 48.615 156.523 47.767 156.523 46.7644C156.523 45.7617 156.384 44.919 156.107 44.2364C155.829 43.543 155.445 43.0204 154.955 42.6684C154.464 42.3057 153.888 42.1244 153.227 42.1244C152.587 42.1244 152.016 42.3057 151.515 42.6684C151.013 43.0204 150.624 43.543 150.347 44.2364C150.069 44.919 149.931 45.7617 149.931 46.7644C149.931 47.767 150.069 48.615 150.347 49.3084C150.624 49.991 151.013 50.5137 151.515 50.8764C152.016 51.2284 152.587 51.4044 153.227 51.4044Z" fill="black"/>
</g>
</g>
<g id="hole_9">
<ellipse id="Ellipse_18" cx="97" cy="76.7646" rx="26" ry="16" fill="#DEC474"/>
<path id="9" d="M96.616 71.0684C97.608 71.0684 98.4453 71.2924 99.128 71.7404C99.8107 72.1777 100.328 72.8124 100.68 73.6444C101.032 74.4764 101.208 75.4844 101.208 76.6684C101.208 77.927 100.989 78.9884 100.552 79.8524C100.125 80.7164 99.528 81.367 98.76 81.8044C97.992 82.2417 97.1013 82.4604 96.088 82.4604C95.5867 82.4604 95.1067 82.4124 94.648 82.3164C94.2 82.2204 93.7947 82.0657 93.432 81.8524L93.896 80.9244C94.184 81.1164 94.5147 81.255 94.888 81.3404C95.272 81.415 95.6667 81.4524 96.072 81.4524C97.2773 81.4524 98.2373 81.0684 98.952 80.3004C99.6773 79.5324 100.04 78.3857 100.04 76.8604C100.04 76.615 100.024 76.3217 99.992 75.9804C99.9707 75.639 99.912 75.2977 99.816 74.9564L100.216 75.2604C100.109 75.815 99.88 76.2897 99.528 76.6844C99.1867 77.0684 98.76 77.3617 98.248 77.5644C97.7467 77.767 97.1867 77.8684 96.568 77.8684C95.832 77.8684 95.176 77.7297 94.6 77.4524C94.0347 77.175 93.592 76.7857 93.272 76.2844C92.952 75.783 92.792 75.191 92.792 74.5084C92.792 73.8044 92.9573 73.1964 93.288 72.6844C93.6187 72.1724 94.072 71.7777 94.648 71.5004C95.2347 71.2124 95.8907 71.0684 96.616 71.0684ZM96.664 72.0444C96.1307 72.0444 95.656 72.1457 95.24 72.3484C94.8347 72.5404 94.5147 72.8177 94.28 73.1804C94.0453 73.543 93.928 73.975 93.928 74.4764C93.928 75.2124 94.1787 75.799 94.68 76.2364C95.192 76.6737 95.88 76.8924 96.744 76.8924C97.32 76.8924 97.8213 76.7857 98.248 76.5724C98.6853 76.359 99.0213 76.0657 99.256 75.6924C99.5013 75.319 99.624 74.903 99.624 74.4444C99.624 74.0284 99.512 73.639 99.288 73.2764C99.064 72.9137 98.7333 72.6204 98.296 72.3964C97.8587 72.1617 97.3147 72.0444 96.664 72.0444Z" fill="black"/>
</g>
<g id="hole_8">
<ellipse id="Ellipse_19" cx="56" cy="117.765" rx="26" ry="16" fill="#DEC474"/>
<path id="8" d="M55.9841 123.46C55.0881 123.46 54.3147 123.332 53.6641 123.076C53.0241 122.82 52.5281 122.452 52.1761 121.972C51.8347 121.482 51.6641 120.906 51.6641 120.244C51.6641 119.604 51.8294 119.06 52.1601 118.612C52.5014 118.154 52.9921 117.802 53.6321 117.556C54.2827 117.311 55.0667 117.188 55.9841 117.188C56.8907 117.188 57.6694 117.311 58.3201 117.556C58.9707 117.802 59.4667 118.154 59.8081 118.612C60.1601 119.06 60.3361 119.604 60.3361 120.244C60.3361 120.906 60.1601 121.482 59.8081 121.972C59.4561 122.452 58.9547 122.82 58.3041 123.076C57.6534 123.332 56.8801 123.46 55.9841 123.46ZM55.9841 122.484C56.9761 122.484 57.7494 122.282 58.3041 121.876C58.8694 121.471 59.1521 120.922 59.1521 120.228C59.1521 119.535 58.8694 118.991 58.3041 118.596C57.7494 118.191 56.9761 117.988 55.9841 117.988C54.9921 117.988 54.2187 118.191 53.6641 118.596C53.1094 118.991 52.8321 119.535 52.8321 120.228C52.8321 120.922 53.1094 121.471 53.6641 121.876C54.2187 122.282 54.9921 122.484 55.9841 122.484ZM55.9841 117.844C55.1521 117.844 54.4427 117.732 53.8561 117.508C53.2801 117.284 52.8374 116.964 52.5281 116.548C52.2187 116.122 52.0641 115.615 52.0641 115.028C52.0641 114.41 52.2241 113.882 52.5441 113.444C52.8747 112.996 53.3334 112.655 53.9201 112.42C54.5067 112.186 55.1947 112.068 55.9841 112.068C56.7734 112.068 57.4614 112.186 58.0481 112.42C58.6454 112.655 59.1094 112.996 59.4401 113.444C59.7707 113.882 59.9361 114.41 59.9361 115.028C59.9361 115.615 59.7814 116.122 59.4721 116.548C59.1627 116.964 58.7094 117.284 58.1121 117.508C57.5254 117.732 56.8161 117.844 55.9841 117.844ZM55.9841 117.076C56.8587 117.076 57.5414 116.895 58.0321 116.532C58.5227 116.17 58.7681 115.684 58.7681 115.076C58.7681 114.436 58.5121 113.94 58.0001 113.588C57.4987 113.226 56.8267 113.044 55.9841 113.044C55.1414 113.044 54.4694 113.226 53.9681 113.588C53.4667 113.94 53.2161 114.431 53.2161 115.06C53.2161 115.679 53.4561 116.17 53.9361 116.532C54.4267 116.895 55.1094 117.076 55.9841 117.076Z" fill="black"/>
</g>
<g id="hole_7">
<ellipse id="Ellipse_20" cx="39" cy="164.765" rx="26" ry="16" fill="#DEC474"/>
<path id="7" d="M37.1759 170.365L42.0079 159.677L42.3599 160.189H35.4319L36.0239 159.629V162.285H34.8879V159.165H43.1119V159.981L38.4239 170.365H37.1759Z" fill="black"/>
</g>
<g id="hole_6">
<ellipse id="Ellipse_21" cx="57" cy="210.765" rx="26" ry="16" fill="#DEC474"/>
<path id="6" d="M57.384 216.46C56.392 216.46 55.5547 216.242 54.872 215.804C54.1893 215.356 53.672 214.716 53.32 213.884C52.968 213.042 52.792 212.034 52.792 210.86C52.792 209.591 53.0053 208.53 53.432 207.676C53.8693 206.812 54.472 206.162 55.24 205.724C56.008 205.287 56.8987 205.068 57.912 205.068C58.4133 205.068 58.8933 205.116 59.352 205.212C59.8107 205.308 60.216 205.463 60.568 205.676L60.104 206.604C59.816 206.412 59.4853 206.279 59.112 206.204C58.7387 206.119 58.344 206.076 57.928 206.076C56.7227 206.076 55.7573 206.46 55.032 207.228C54.3173 207.996 53.96 209.143 53.96 210.668C53.96 210.903 53.9707 211.196 53.992 211.548C54.024 211.89 54.088 212.231 54.184 212.572L53.784 212.268C53.9013 211.714 54.1307 211.244 54.472 210.86C54.8133 210.466 55.24 210.167 55.752 209.964C56.264 209.762 56.824 209.66 57.432 209.66C58.1787 209.66 58.8347 209.799 59.4 210.076C59.9653 210.354 60.408 210.743 60.728 211.244C61.048 211.746 61.208 212.338 61.208 213.02C61.208 213.714 61.0427 214.322 60.712 214.844C60.3813 215.356 59.9227 215.756 59.336 216.044C58.76 216.322 58.1093 216.46 57.384 216.46ZM57.336 215.484C57.8693 215.484 58.3387 215.388 58.744 215.196C59.16 214.994 59.4853 214.711 59.72 214.348C59.9547 213.975 60.072 213.543 60.072 213.052C60.072 212.316 59.816 211.73 59.304 211.292C58.8027 210.855 58.12 210.636 57.256 210.636C56.68 210.636 56.1787 210.743 55.752 210.956C55.3253 211.17 54.9893 211.463 54.744 211.836C54.4987 212.199 54.376 212.615 54.376 213.084C54.376 213.49 54.488 213.879 54.712 214.252C54.936 214.615 55.2667 214.914 55.704 215.148C56.152 215.372 56.696 215.484 57.336 215.484Z" fill="black"/>
</g>
<g id="hole_5">
<ellipse id="Ellipse_22" cx="93" cy="251.765" rx="26" ry="16" fill="#DEC474"/>
<path id="5" d="M92.976 257.413C92.176 257.413 91.4133 257.285 90.688 257.029C89.9626 256.762 89.3866 256.41 88.96 255.973L89.52 255.061C89.872 255.434 90.352 255.743 90.96 255.989C91.5786 256.234 92.2453 256.357 92.96 256.357C93.9093 256.357 94.6293 256.149 95.12 255.733C95.6213 255.306 95.872 254.751 95.872 254.069C95.872 253.589 95.7546 253.178 95.52 252.837C95.296 252.485 94.912 252.213 94.368 252.021C93.824 251.829 93.0773 251.733 92.128 251.733H89.744L90.32 246.117H96.448V247.141H90.784L91.376 246.581L90.88 251.285L90.288 250.709H92.384C93.5146 250.709 94.4213 250.847 95.104 251.125C95.7866 251.402 96.2773 251.791 96.576 252.293C96.8853 252.783 97.04 253.359 97.04 254.021C97.04 254.65 96.8906 255.226 96.592 255.749C96.2933 256.261 95.8453 256.666 95.248 256.965C94.6506 257.263 93.8933 257.413 92.976 257.413Z" fill="black"/>
</g>
<g id="hole_4">
<ellipse id="Ellipse_23" cx="147" cy="280.765" rx="26" ry="16" fill="#DEC474"/>
<path id="4" d="M142.144 283.421V282.589L148.08 275.165H149.36L143.472 282.589L142.848 282.397H151.856V283.421H142.144ZM148.464 286.365V283.421L148.496 282.397V279.805H149.616V286.365H148.464Z" fill="black"/>
</g>
<g id="hole_3">
<ellipse id="Ellipse_24" cx="215" cy="295.765" rx="26" ry="16" fill="#DEC474"/>
<path id="3" d="M214.984 301.413C214.173 301.413 213.405 301.285 212.68 301.029C211.965 300.762 211.389 300.41 210.952 299.973L211.512 299.061C211.875 299.434 212.36 299.743 212.968 299.989C213.587 300.234 214.259 300.357 214.984 300.357C215.912 300.357 216.621 300.154 217.112 299.749C217.613 299.343 217.864 298.799 217.864 298.117C217.864 297.434 217.619 296.89 217.128 296.485C216.648 296.079 215.885 295.877 214.84 295.877H214.04V295.029L217.496 290.693L217.656 291.141H211.416V290.117H218.616V290.933L215.16 295.269L214.6 294.901H215.032C216.376 294.901 217.379 295.199 218.04 295.797C218.712 296.394 219.048 297.162 219.048 298.101C219.048 298.73 218.899 299.295 218.6 299.797C218.301 300.298 217.848 300.693 217.24 300.981C216.643 301.269 215.891 301.413 214.984 301.413Z" fill="black"/>
</g>
<g id="hole_2">
<ellipse id="Ellipse_25" cx="289" cy="299.765" rx="26" ry="16" fill="#DEC474"/>
<path id="2" d="M285.24 305.413V304.597L289.896 300.037C290.323 299.621 290.643 299.258 290.856 298.949C291.069 298.629 291.213 298.33 291.288 298.053C291.363 297.775 291.4 297.514 291.4 297.269C291.4 296.618 291.176 296.106 290.728 295.733C290.291 295.359 289.64 295.173 288.776 295.173C288.115 295.173 287.528 295.274 287.016 295.477C286.515 295.679 286.083 295.994 285.72 296.421L284.904 295.717C285.341 295.205 285.901 294.81 286.584 294.533C287.267 294.255 288.029 294.117 288.872 294.117C289.629 294.117 290.285 294.239 290.84 294.485C291.395 294.719 291.821 295.066 292.12 295.525C292.429 295.983 292.584 296.522 292.584 297.141C292.584 297.503 292.531 297.861 292.424 298.213C292.328 298.565 292.147 298.938 291.88 299.333C291.624 299.717 291.245 300.154 290.744 300.645L286.472 304.837L286.152 304.389H293.096V305.413H285.24Z" fill="black"/>
</g>
<g id="hole_1">
<ellipse id="Ellipse_26" cx="360" cy="288.765" rx="26" ry="16" fill="#DEC474"/>
<path id="1" d="M360.744 294.365V283.645L361.256 284.189H358.104V283.165H361.896V294.365H360.744Z" fill="black"/>
</g>
<ellipse id="Hole" cx="57" cy="210.765" rx="26" ry="16" fill="#5B4844"/>
</g>
</svg>
