<svg width="36" height="78" viewBox="0 0 36 78" fill="none" xmlns="http://www.w3.org/2000/svg">
<path d="M6.30103 75.4568C5.8825 75.288 5.30965 75.1168 4.8599 75.0833C4.77741 75.0772 4.2038 75.1209 4.15989 75.0416C4.02943 74.8048 5.21548 73.8521 5.41574 73.7557C7.26424 72.8646 9.43152 73.1015 11.427 72.9674L11.5531 72.9736C11.4876 72.6718 11.511 72.3766 11.4683 72.0938C11.4519 71.9838 11.2574 71.693 11.2072 71.5978C10.709 70.6513 10.1996 69.7484 9.65539 68.8275C8.03735 66.0893 6.50535 63.599 7.14977 60.2746C7.29419 59.5285 7.92897 58.2175 8.36197 57.5814L8.43558 57.4116C8.32771 56.1858 8.33202 54.9878 8.49243 54L8.48913 53.9202C8.44852 54.1468 8.40106 54.3673 8.3371 54.5755C7.6343 56.8622 5.83757 58.6781 3.54338 59.3441L3.46343 59.3672C3.25277 58.1285 3.82638 57.1587 4.26243 56.1139L4.24669 56.0597C3.63475 56.8853 2.95023 57.6674 2.0657 58.2055H2.03321C1.63727 57.1761 1.43472 56.5257 1.44615 55.4499C1.45858 54.2591 1.46645 53.0663 1.55325 51.8931C1.64082 50.711 0.935992 49.5718 1.09462 48.3769C1.30173 46.816 2.52205 45.5822 2.77433 44.0254C2.84464 43.5911 2.71139 43.1459 2.67205 42.7134C2.56418 41.5297 2.32053 40.3844 2.17459 39.2123C1.90707 37.0672 1.99997 34.9311 2.48956 32.8252C2.82764 31.3715 3.39491 30.2205 4.07156 28.9174C4.32411 28.431 4.41014 27.8765 4.64517 27.3865C4.88375 26.889 5.47005 26.4327 5.48224 25.8427C5.50711 24.6378 4.01293 24.5877 3.34008 24.111C1.42483 22.7536 1.61011 21.3805 2.59109 19.4914C3.04465 18.618 3.63577 17.7847 3.99694 16.8691C4.22639 16.2883 4.25304 15.6742 4.4802 15.1031C4.78477 14.3368 5.64316 13.668 6.30433 13.2187C7.27262 12.5606 8.38532 12.3736 9.49853 12.1059C9.84016 12.0235 10.5216 12.1179 10.764 11.7915C10.8496 11.6762 11.194 10.5396 11.2082 10.0409C11.229 9.3081 10.8663 7.65589 10.9607 7.07302C11.1876 5.67197 11.2475 4.04328 12.2666 2.91257C13.2204 1.85398 14.5258 2.98648 14.9577 3.97908C15.16 4.44329 15.391 6.15534 15.3798 6.70062L15.3839 6.74871C16.0377 5.26403 16.8963 3.88343 18.059 2.64964C19.3347 1.29591 21.4875 -0.283407 22.7665 2.03224C23.7944 3.89264 23.2307 5.95534 22.2248 7.67762C21.0621 9.6682 19.3045 11.2097 17.9215 13.0332C17.3271 13.8171 16.6433 14.7445 16.4692 15.7438C16.2511 16.9944 16.8463 18.2111 17.0336 19.4206C17.3037 21.1623 17.1722 23.2608 16.4666 24.8851C16.089 25.7542 15.4907 26.4939 14.875 27.2018H14.9148C16.7364 27.8126 17.3923 28.3581 17.9334 28.8752C18.6167 29.5285 19.4606 29.9425 20.0111 30.7436C21.2449 32.5387 21.1451 34.9114 21.9139 36.902C22.6835 38.8949 23.7469 40.6251 24.736 42.4996C25.4876 43.9241 26.1426 45.4119 26.9297 46.8196C27.2147 47.3291 27.5673 47.8073 27.8089 48.3424C29.9173 53.011 31.9887 57.9523 32.6338 63.0785C32.9262 65.4013 32.5892 67.7625 31.5935 69.8901C31.1945 70.7431 30.7001 71.5971 30.2039 72.3956C30.1419 72.4951 30.0823 72.5958 30.0216 72.6961L30.0356 72.6715C31.6744 71.3643 34.2623 71.5945 35.8098 72.9181L35.878 73.1654C35.6268 73.7066 34.9922 74.0746 34.4996 74.3606C33.1836 75.1243 32.4176 75.6818 28.8741 74.7235C27.4559 76.867 24.6632 76.8946 22.3758 77.1826C19.3466 77.5642 16.3382 77.4941 13.2955 77.6402C12.0186 77.7013 10.7465 77.8235 9.46478 77.7831C8.03785 77.7381 6.61042 77.5765 5.18325 77.5565L5.22538 77.4629C5.22538 77.4629 5.29493 76.7752 5.95382 76.135C6.11829 75.9752 6.30433 75.8381 6.50332 75.7163" fill="#9E9EE2"/>
<path d="M21.4984 0.768535C20.8817 0.620706 20.2441 0.835797 19.7058 1.13631C18.6875 1.70461 17.8471 2.60566 17.1359 3.51795C16.8814 3.84456 16.6468 4.18472 16.4222 4.53306C16.078 5.06632 15.7588 5.63539 15.4862 6.21929C15.4755 6.09448 15.4679 5.96838 15.4544 5.84383C15.4148 5.47656 15.3554 5.11185 15.2879 4.74867C15.2372 4.47603 15.1867 4.18088 15.0737 3.92563C14.6666 3.0049 13.4785 1.8504 12.4404 2.58289C11.6541 3.13764 11.2813 4.34328 11.1079 5.22847C11.0128 5.71467 10.9574 6.2088 10.8859 6.69909C10.8498 6.94564 10.8072 7.19296 10.8145 7.44233C10.8391 8.28096 11.0663 9.10425 11.0762 9.94391C11.0805 10.3086 10.9795 10.6738 10.8859 11.023C10.8265 11.2447 10.7663 11.4762 10.6719 11.6864C10.5427 11.9731 9.80208 11.9007 9.47416 11.9739C8.35435 12.2245 7.20408 12.468 6.23021 13.1089C5.52715 13.5714 4.76699 14.167 4.40582 14.9553C4.19668 15.4115 4.1345 15.9118 4.00937 16.3939C3.93018 16.6978 3.81927 16.9799 3.68399 17.265C3.06418 18.5712 2.07178 19.7505 1.7964 21.2053C1.58954 22.2971 2.00072 23.1567 2.81951 23.8667C3.0185 24.0393 3.22941 24.2138 3.4619 24.3383C3.60023 24.4125 3.76876 24.4813 3.91394 24.5383C4.46217 24.7529 5.43578 25.0475 5.35761 25.833C5.30761 26.3358 4.94974 26.6657 4.68349 27.0637C4.57308 27.2287 4.49415 27.4054 4.42156 27.5913C4.2741 27.9704 4.18729 28.3719 4.01724 28.7422C3.80099 29.2128 3.54007 29.664 3.31926 30.1328C2.96926 30.8755 2.66621 31.6397 2.45453 32.4346C1.86925 34.6349 1.76924 36.9736 2.05021 39.2284C2.1959 40.3982 2.41494 41.5566 2.54184 42.729C2.58397 43.118 2.69489 43.5098 2.66088 43.9039C2.64717 44.0628 2.5893 44.2131 2.54996 44.3676C2.42128 44.8692 2.21315 45.3295 1.97889 45.7902C1.46898 46.792 0.881922 47.8125 0.947659 48.9792C0.997913 49.8716 1.4063 50.7046 1.43142 51.6008C1.44234 51.9888 1.39716 52.3806 1.37584 52.7675C1.33802 53.4609 1.33624 54.1596 1.32837 54.8538C1.32051 55.5356 1.30858 56.2072 1.46315 56.8758C1.55224 57.2605 1.68447 57.6329 1.82001 58.0027C1.85376 58.0942 1.88219 58.2081 1.94691 58.2825C2.06976 58.4234 2.25783 58.2339 2.35148 58.1707C2.49971 58.0705 2.63347 57.972 2.7718 57.8589C3.17053 57.5336 3.51292 57.1438 3.84262 56.7479C3.82967 56.7776 3.81571 56.8062 3.80302 56.8359C3.53754 57.4497 3.30124 58.0845 3.28753 58.762C3.28652 58.8127 3.29413 58.8712 3.2954 58.9219C3.29667 58.9733 3.29185 59.0224 3.2954 59.0738C3.30149 59.1574 3.30505 59.3206 3.35099 59.4014C3.40149 59.4904 3.4949 59.4922 3.58094 59.4654C3.67663 59.4354 3.77155 59.4094 3.86648 59.3774C4.33958 59.2178 4.79339 59.0101 5.22284 58.7541C6.6358 57.9109 7.70129 56.5786 8.27643 55.0456C8.24978 55.5318 8.23277 56.0216 8.25257 56.5083C8.26095 56.7113 8.26882 56.9126 8.2843 57.1155C8.29166 57.2096 8.31653 57.3016 8.30815 57.3953C8.29851 57.5055 8.20028 57.5894 8.14165 57.683C8.10028 57.749 8.0617 57.8157 8.02262 57.8827C7.84368 58.1904 7.67998 58.5109 7.53074 58.8339C7.12236 59.7201 6.92286 60.4887 6.88047 61.4795C6.74316 64.6951 8.70461 67.3775 10.2117 70.0395C10.4714 70.4981 10.7254 70.9566 10.9732 71.4221C11.0894 71.6405 11.2551 71.8656 11.3379 72.1014C11.3605 72.1654 11.3658 72.3221 11.3699 72.3892C11.3782 72.5367 11.3859 72.6889 11.4095 72.8367C11.245 72.8454 11.082 72.861 10.9176 72.8687C10.4079 72.8925 9.89675 72.8869 9.38685 72.9007C8.10587 72.9357 6.79011 73.0211 5.59568 73.5321C5.26471 73.6736 5.01192 73.8713 4.73882 74.1076C4.60786 74.2212 4.47867 74.3424 4.35811 74.4672C4.27511 74.5534 4.1878 74.6396 4.12029 74.7391C4.09313 74.779 4.06724 74.8296 4.04896 74.8749C3.88703 75.2762 4.43272 75.2243 4.65176 75.2186C4.71369 75.2168 4.78806 75.2038 4.84999 75.2104C4.92588 75.2186 4.99669 75.223 5.07207 75.2345C5.53934 75.3061 5.07334 75.2391 6.25382 75.5782C6.28224 75.5892 6.29849 75.5549 6.32514 75.5463C6.33402 75.5713 6.32006 75.5286 6.34113 75.5862C6.46828 75.9342 5.79112 76.0754 5.56371 76.3775C5.45279 76.5253 5.3571 76.6816 5.27842 76.8491C5.22157 76.9698 5.17157 77.0959 5.13553 77.2248C5.12081 77.2772 5.1137 77.3307 5.1038 77.3844C5.1005 77.4026 5.09771 77.4118 5.09593 77.4246C5.09365 77.4297 5.08933 77.4294 5.08806 77.4325C5.08222 77.445 5.07537 77.4593 5.07207 77.4724C5.0604 77.5177 5.06446 77.5591 5.08806 77.6003C5.16497 77.7353 5.40913 77.7005 5.5401 77.7041C5.65837 77.7077 5.77056 77.7074 5.88909 77.7123C6.12615 77.7217 6.366 77.7384 6.60281 77.7522C7.07845 77.7801 7.5551 77.8174 8.03049 77.8481C8.72161 77.8926 9.41578 77.9307 10.1087 77.9281C11.3018 77.9233 12.4861 77.8061 13.6778 77.7601C15.5699 77.687 17.4656 77.6744 19.3568 77.5762C20.7662 77.5033 22.167 77.344 23.5685 77.1847C25.0571 77.0156 26.6515 76.8189 27.9071 75.922C28.2434 75.6815 28.5414 75.3938 28.7955 75.0667C28.813 75.0442 28.8876 74.9429 28.9224 74.8828C28.9673 74.8815 29.0135 74.9035 29.0571 74.9148C29.245 74.9629 29.2906 74.9736 29.4774 75.0186C29.7285 75.0792 29.9775 75.1373 30.231 75.1867C31.1752 75.37 32.1833 75.4833 33.1181 75.1946C33.6371 75.0342 34.1026 74.7473 34.5696 74.4754C35.0681 74.1848 35.6217 73.8782 35.926 73.3644C36.1651 72.9605 35.773 72.6922 35.4737 72.4932C35.3336 72.3999 35.1712 72.3065 35.0217 72.2293C33.8374 71.6183 32.3813 71.482 31.1193 71.9257C30.8787 72.0101 30.6584 72.1411 30.4371 72.2692C30.4787 72.2019 30.5183 72.1375 30.564 72.0615C30.7356 71.7779 30.8937 71.5196 31.0559 71.2303C31.1348 71.0896 31.21 70.949 31.2858 70.8068C32.4282 68.665 32.9892 66.377 32.8483 63.9412C32.7879 62.8923 32.6049 61.8521 32.3963 60.824C31.9856 58.7989 31.379 56.8175 30.6752 54.8776C30.0825 53.2445 29.4137 51.6404 28.716 50.0503C28.4183 49.3713 28.1396 48.669 27.796 48.0122C27.6132 47.6628 27.3954 47.3429 27.1932 47.005C26.9376 46.5784 26.7058 46.1293 26.4794 45.6863C25.7675 44.2935 25.1007 42.8812 24.3538 41.5062C23.4545 39.8517 22.4335 38.1647 21.8631 36.359C21.3999 34.8917 21.3116 33.3237 20.7527 31.8832C20.5888 31.461 20.3888 31.0254 20.1182 30.6604C19.6352 30.0085 18.99 29.5822 18.3733 29.0781C17.86 28.6584 17.4306 28.22 16.8504 27.887C16.4484 27.6563 16.0212 27.4696 15.5892 27.3036C15.4496 27.2499 15.3184 27.2013 15.177 27.1517C15.1557 27.1443 15.1346 27.1353 15.1136 27.1276C15.1702 27.0619 15.224 26.9949 15.2801 26.9279C15.4324 26.7458 15.5813 26.5665 15.7242 26.3765C16.1534 25.8054 16.5126 25.1892 16.7552 24.5143C17.3367 22.8974 17.4263 21.0889 17.1677 19.3991C16.9585 18.0315 16.2557 16.6814 16.7235 15.2908C16.9423 14.6412 17.3222 14.065 17.723 13.5166C18.1575 12.9215 18.6347 12.3524 19.1189 11.7982C20.7799 9.8966 22.7126 7.97635 23.2989 5.42029C23.5786 4.20031 23.4568 2.90387 22.7992 1.82354C22.501 1.33402 22.0675 0.904855 21.4984 0.768535ZM20.721 1.02429C20.9573 0.978514 21.1979 0.967516 21.435 1.02429C22.1563 1.19693 22.6073 1.90385 22.8705 2.55092C23.4939 4.08318 23.0814 5.76634 22.3472 7.17839C21.2959 9.19991 19.5844 10.747 18.175 12.5015C17.4654 13.3849 16.6783 14.3348 16.3905 15.4589C16.0692 16.7131 16.6057 17.9274 16.8504 19.1433C17.11 20.4334 17.0991 21.8158 16.8583 23.1076C16.6453 24.2508 16.2159 25.2805 15.5179 26.2087C15.3308 26.4575 15.1321 26.6987 14.9311 26.9358C14.8717 27.0059 14.7151 27.1376 14.7643 27.2476C14.792 27.309 14.8171 27.3161 14.8755 27.3356C14.8836 27.3381 14.8887 27.3358 14.8993 27.3356C14.9643 27.3594 15.0242 27.3847 15.0897 27.4074C15.1593 27.432 15.2346 27.454 15.3039 27.4796C15.3694 27.5036 15.4288 27.5261 15.4943 27.5514C15.8699 27.6959 16.2425 27.8622 16.5966 28.055C16.9407 28.2422 17.2671 28.4619 17.5644 28.7182C17.7814 28.9057 17.9768 29.1039 18.1989 29.2857C18.8646 29.8305 19.5847 30.2898 20.0469 31.0441C20.8471 32.3502 21.0022 33.9173 21.3319 35.3841C21.5697 36.4429 21.9558 37.4345 22.4185 38.4133C23.0883 39.8299 23.8888 41.1745 24.6155 42.5612C25.303 43.8732 25.917 45.2229 26.6221 46.5255C26.9185 47.0733 27.2696 47.5887 27.5581 48.1401C27.7505 48.5079 27.9117 48.8961 28.0815 49.2749C28.3455 49.8636 28.6066 50.4555 28.8589 51.0493C29.5785 52.7435 30.2703 54.4502 30.8577 56.1965C31.4414 57.9321 31.9237 59.7004 32.2536 61.5035C32.6161 63.4857 32.7521 65.4026 32.3092 67.386C32.0143 68.7052 31.476 69.9198 30.8178 71.0945C30.5851 71.5099 30.3374 71.9196 30.0884 72.3252C30.0488 72.3897 30.0084 72.4526 29.9693 72.517C29.9566 72.5378 29.95 72.5605 29.9376 72.581C29.933 72.5884 29.9252 72.5994 29.9216 72.605C29.9203 72.6073 29.9117 72.6158 29.9137 72.6129C29.9145 72.6145 29.912 72.6198 29.9137 72.6211C29.9863 72.6695 30.0531 72.7201 30.128 72.7649C30.1216 72.7715 30.1059 72.7848 30.112 72.7807C30.1201 72.7754 30.1277 72.7702 30.1358 72.7649C30.411 72.5815 30.6686 72.4007 30.9767 72.2692C32.0653 71.805 33.3397 71.839 34.4346 72.2613C34.7471 72.3817 35.0519 72.539 35.3311 72.725C35.4549 72.8073 35.5641 72.9063 35.6879 72.9887C35.6892 72.9925 35.6872 72.9943 35.6879 72.9966C35.6943 73.0199 35.7052 73.0375 35.7118 73.0605C35.7362 73.1485 35.7181 73.1882 35.6958 73.2204C35.3775 73.6846 34.911 73.9662 34.4346 74.2434C33.9856 74.5051 33.5379 74.7767 33.0387 74.9309C32.4021 75.1276 31.7351 75.1158 31.0797 75.0427C30.5612 74.9849 30.0478 74.8772 29.5409 74.7549C29.4734 74.7388 29.4021 74.724 29.3348 74.7071C29.2148 74.6769 28.984 74.5813 28.8508 74.6191C28.7305 74.6534 28.5376 74.9491 28.4861 75.0107C28.3302 75.1969 28.1574 75.3677 27.9706 75.5222C27.3756 76.0148 26.6543 76.3235 25.9162 76.5215C24.8497 76.8074 23.7408 76.8887 22.6484 77.0169C21.5482 77.1458 20.4474 77.2473 19.341 77.3046C17.324 77.4092 15.3067 77.4123 13.2892 77.5044C12.2275 77.5529 11.164 77.6519 10.1008 77.6563C9.414 77.6591 8.73151 77.6205 8.04647 77.5762C7.45129 77.5379 6.85738 77.4877 6.26169 77.4565C6.14239 77.4501 6.02437 77.4453 5.90483 77.4404C5.78554 77.4356 5.65939 77.4358 5.5401 77.4325C5.48274 77.4309 5.43071 77.4263 5.37335 77.4246C5.37437 77.4194 5.37233 77.4138 5.37335 77.4084C5.39569 77.2997 5.42766 77.1918 5.46878 77.0887C5.57132 76.8317 5.72183 76.5926 5.90483 76.3854C5.99848 76.2795 6.09721 76.1793 6.20635 76.0897C6.26295 76.0432 6.37539 76.0266 6.38859 75.9539C6.4259 75.7511 6.38834 75.9583 6.57895 75.834C6.64164 75.7933 6.65915 75.7051 6.61879 75.6422C6.57844 75.5792 6.49087 75.5616 6.42843 75.6023C6.40635 75.5989 6.38757 75.5603 6.36498 75.5301C6.37716 75.5207 6.39646 75.5284 6.40458 75.5143C6.42488 75.6018 6.42869 75.6501 6.46016 75.5862C6.49113 75.523 6.4457 75.4567 6.38072 75.4023C6.36676 75.3808 6.37463 75.3486 6.349 75.3383C6.36194 75.3659 6.35584 75.3705 6.36498 75.3943C6.32107 75.3588 6.27107 75.323 6.23808 75.2905C6.20863 75.2616 6.15762 75.2644 6.11904 75.2506C6.04239 75.2232 5.95864 75.1951 5.88097 75.1705C5.63021 75.0915 5.37183 75.0268 5.11167 74.9869C4.85151 74.9468 4.56826 74.947 4.30277 74.9468C4.31267 74.9276 4.32079 74.911 4.3345 74.8907C4.39415 74.8035 4.4675 74.7189 4.5406 74.6432C4.60836 74.5728 4.67435 74.5086 4.74694 74.4432C4.89161 74.3125 5.04568 74.1882 5.19898 74.0677C5.42639 73.8887 5.65406 73.779 5.92868 73.6759C6.31625 73.5306 6.71955 73.4304 7.12641 73.3562C7.70688 73.2508 8.29851 73.2061 8.8871 73.1805C9.56908 73.1508 10.2518 73.1562 10.9336 73.1245C11.096 73.1171 11.2551 73.1014 11.4173 73.0925C11.4044 73.0925 11.4442 73.0999 11.4569 73.1004C11.4742 73.1015 11.4952 73.102 11.5125 73.1004C11.5765 73.0956 11.6303 73.0569 11.6552 72.9966C11.6841 72.9273 11.6432 72.7083 11.6394 72.661C11.6354 72.6129 11.6341 72.5651 11.6315 72.517C11.6224 72.3564 11.6308 72.1771 11.5838 72.0216C11.5308 71.8457 11.4082 71.6935 11.3222 71.5341C11.1539 71.2226 10.9851 70.9091 10.8145 70.5988C10.7298 70.4446 10.6468 70.2968 10.5607 70.1433C9.39954 68.0737 7.92439 66.0223 7.35637 63.6854C7.01804 62.2936 7.01093 60.7746 7.54672 59.4334C7.7419 58.9446 7.98049 58.4654 8.2447 58.0106C8.34445 57.8393 8.53709 57.6318 8.56196 57.4272C8.58735 57.218 8.52643 57.0065 8.5145 56.7958C8.49191 56.4044 8.48709 56.0131 8.49064 55.621C8.49369 55.2558 8.51628 54.8891 8.5541 54.5261C8.56298 54.4407 8.5744 54.3553 8.58582 54.2704C8.59674 54.1878 8.59902 54.1049 8.60156 54.0225C8.60334 54.0141 8.60791 54.0067 8.60943 53.9985C8.61045 53.9949 8.60334 54.0023 8.60156 54.0064C8.60105 53.9775 8.62161 53.9456 8.60943 53.9185C8.56349 53.8164 8.45562 53.8044 8.37948 53.8786C8.33227 53.9249 8.33455 54.0724 8.32414 54.1185C8.30764 54.1903 8.28658 54.2627 8.26856 54.3343C8.25105 54.4031 8.23379 54.466 8.21298 54.5341C8.07033 54.9978 7.88353 55.4522 7.64977 55.8768C6.90839 57.2239 5.73071 58.3093 4.32663 58.9219C4.14541 59.0009 3.97435 59.0666 3.78704 59.1298C3.72003 59.1523 3.64591 59.1794 3.57307 59.2017C3.55962 59.1073 3.552 59.0226 3.54921 58.914C3.54794 58.8671 3.5482 58.8168 3.54921 58.77C3.55124 58.6766 3.55479 58.5912 3.5652 58.4983C3.58474 58.3191 3.62256 58.1449 3.66825 57.9707C3.76089 57.6175 3.89617 57.2743 4.04085 56.9397C4.15151 56.6842 4.29339 56.4285 4.38197 56.1645C4.39922 56.1129 4.38374 56.0356 4.34237 55.9968C4.19643 55.8584 4.0614 56.0891 3.98551 56.1886C3.93399 56.2558 3.88754 56.3218 3.83475 56.3883C3.62434 56.6528 3.40327 56.9044 3.1685 57.1477C2.93652 57.3878 2.6822 57.6111 2.41494 57.8109C2.31519 57.8855 2.20909 57.9572 2.10579 58.0267C2.09868 58.0083 2.08879 57.9891 2.08193 57.9707C2.04285 57.8679 2.01138 57.7886 1.97077 57.6751C1.92153 57.5367 1.87102 57.3763 1.82812 57.2354C1.64995 56.652 1.57203 56.0627 1.57431 55.453C1.57736 54.6625 1.58269 53.8694 1.61391 53.0793C1.63523 52.5376 1.71594 51.9831 1.67736 51.4409C1.63066 50.7882 1.40934 50.1698 1.28878 49.5306C1.19411 49.0296 1.16898 48.5189 1.28878 48.0201C1.59462 46.7449 2.47737 45.7078 2.80377 44.4395C2.84692 44.2717 2.89844 44.1006 2.91469 43.928C2.95352 43.5162 2.83956 43.1034 2.79565 42.6973C2.68981 41.7174 2.52534 40.7545 2.38321 39.7798C2.12483 38.0053 2.07331 36.204 2.31976 34.425C2.45758 33.4298 2.67255 32.4436 3.01774 31.4996C3.25403 30.8535 3.54997 30.2272 3.85861 29.6134C3.98729 29.3571 4.12739 29.107 4.24719 28.8461C4.41953 28.4706 4.51014 28.0714 4.65963 27.6872C4.91344 27.0348 5.53832 26.5813 5.61142 25.857C5.63096 25.6639 5.57538 25.4468 5.49239 25.2734C5.14467 24.5457 4.21445 24.4447 3.58094 24.1066C3.0652 23.8314 2.57154 23.3542 2.28016 22.8437C1.88803 22.1567 1.96518 21.3756 2.21671 20.6538C2.56951 19.6415 3.18017 18.7605 3.68399 17.8246C3.84211 17.5308 3.99135 17.2292 4.12029 16.9213C4.42207 16.2016 4.38399 15.3716 4.84212 14.7154C5.11801 14.32 5.48705 13.9934 5.86523 13.7003C6.17919 13.457 6.50255 13.2256 6.85662 13.045C7.43581 12.7496 8.06805 12.5793 8.69674 12.4296C8.9975 12.358 9.30334 12.2672 9.60893 12.2217C9.88355 12.1808 10.1633 12.1989 10.4338 12.1258C10.615 12.0769 10.7904 12.0041 10.8937 11.8381C11.0244 11.6289 11.0767 11.3299 11.1397 11.0948C11.2313 10.7534 11.3219 10.4027 11.3379 10.0478C11.3529 9.72038 11.2991 9.38022 11.2587 9.05668C11.1917 8.51933 11.093 7.97661 11.0762 7.43415C11.0653 7.07864 11.146 6.72927 11.1952 6.37939C11.2638 5.89242 11.3275 5.40341 11.4412 4.92463C11.4973 4.68831 11.5633 4.45736 11.6473 4.22922C11.8534 3.67039 12.2876 2.78776 12.9242 2.63865C13.3458 2.54019 13.7671 2.76525 14.0823 3.03047C14.4042 3.30107 14.6648 3.6443 14.8359 4.02947C15.0377 4.48396 15.0887 5.11517 15.1532 5.60393C15.1651 5.69421 15.1829 5.77707 15.1928 5.86787C15.2103 6.02874 15.229 6.19371 15.2405 6.35535C15.2509 6.50497 15.1641 6.90088 15.4466 6.84283C15.5143 6.82902 15.6402 6.49397 15.6686 6.43515C15.7273 6.31417 15.7829 6.19575 15.843 6.07555C16.0232 5.71621 16.222 5.36402 16.4301 5.02054C16.6397 4.6745 16.8572 4.33152 17.0963 4.00543C17.3392 3.67397 17.6012 3.35401 17.8735 3.04633C18.4915 2.34862 19.1943 1.66625 20.039 1.25601C20.2532 1.15192 20.4847 1.07008 20.721 1.02429Z" fill="#9E9EE2"/>
<path d="M20.4469 0.000927275C19.3358 0.0328972 18.238 0.867954 17.4725 1.60735C15.2355 3.76827 13.9357 6.68725 13.1814 9.67171C13.1273 9.88655 13.0745 10.1311 13.007 10.3433C12.8098 10.9633 12.5689 11.5214 12.555 12.1815C12.5494 12.4654 12.7727 12.7035 13.0545 12.7091C13.3365 12.7145 13.5646 12.4894 13.5702 12.2055C13.5791 11.6564 13.8111 11.1786 13.9748 10.663C14.0524 10.4178 14.1098 10.1768 14.173 9.92747C14.8497 7.25274 15.9723 4.70665 17.869 2.67847C18.0251 2.51146 18.1845 2.34497 18.353 2.19074C19.1553 1.4562 20.5442 0.426767 21.4622 1.53548C21.6188 1.725 21.7444 1.94521 21.8508 2.16695C22.6249 3.7831 22.0647 5.62508 21.2084 7.0824C20.1053 8.95865 18.4703 10.4574 17.1154 12.1416C16.4256 12.9991 15.7136 13.9483 15.4342 15.0347C15.0342 16.5887 15.8172 18.0732 15.9893 19.5985C16.1735 21.2326 16.0431 23.0311 15.3152 24.5298C14.9575 25.2661 14.4342 25.906 13.9032 26.5201C13.7078 26.7462 13.7263 27.0823 13.9509 27.2792C14.1753 27.4762 14.5167 27.4575 14.7124 27.2314C15.3053 26.5447 15.8834 25.8321 16.2827 25.0094C17.1005 23.3247 17.2682 21.3103 17.0601 19.4706C16.9812 18.775 16.7972 18.1161 16.6238 17.4407C16.4449 16.7432 16.2921 16.0117 16.473 15.2984C16.7505 14.2058 17.6172 13.2316 18.3053 12.3733C18.718 11.8585 19.1606 11.3725 19.5982 10.8786C21.5102 8.7208 23.8277 5.89849 23.1515 2.77438C23.0718 2.40583 22.9495 2.05084 22.7866 1.71144C22.6196 1.36336 22.416 1.02652 22.152 0.744166C21.9774 0.557206 21.7726 0.396846 21.5492 0.272547C21.1891 0.0722872 20.8173 -0.00981463 20.4469 0.000927275ZM14.5139 26.3841C14.2471 26.2928 13.9542 26.435 13.8636 26.7038C13.773 26.9728 13.9139 27.2677 14.1809 27.3593C14.9372 27.6181 15.702 27.9115 16.3621 28.3744C16.8007 28.6821 17.1697 29.0754 17.5916 29.4054C17.9929 29.7192 18.4289 30.0079 18.7733 30.3882C18.9743 30.6105 19.138 30.8611 19.2809 31.1238C19.9507 32.3553 20.0967 33.787 20.3992 35.1359C20.682 36.3963 21.169 37.571 21.7396 38.7245C22.3581 39.9749 23.0607 41.1813 23.7066 42.4171C24.3305 43.6102 24.8894 44.8374 25.515 46.0297C25.6896 46.3622 25.8699 46.6904 26.0622 47.0126C26.2577 47.3397 26.4729 47.6576 26.6493 47.9958C26.8376 48.3569 26.9907 48.7431 27.1569 49.1147C27.4635 49.8001 27.7602 50.4853 28.0531 51.1769C28.8501 53.0583 29.5935 54.9632 30.2026 56.9154C30.6468 58.3387 31.0212 59.7878 31.2892 61.2554C31.6034 62.9751 31.7577 64.6848 31.4557 66.4186C31.2971 67.3309 31.0265 68.2248 30.6547 69.0719C30.1927 70.1249 29.5915 71.1054 28.997 72.0852C28.8417 72.3413 28.9176 72.672 29.1714 72.8285C29.4255 72.985 29.7618 72.9085 29.9171 72.6525C30.5362 71.6315 31.1572 70.6087 31.6382 69.5115C32.0047 68.6762 32.2773 67.8015 32.4552 66.9061C32.8479 64.9301 32.7045 63.0221 32.344 61.0556C32.0872 59.653 31.7382 58.2701 31.3209 56.9074C30.6801 54.813 29.8861 52.7741 29.0288 50.7613C28.7318 50.0638 28.4275 49.3664 28.1166 48.6751C27.9409 48.2843 27.7765 47.8802 27.5772 47.5003C27.3907 47.1443 27.1653 46.8134 26.9587 46.4694C26.7752 46.164 26.6092 45.8492 26.443 45.5341C25.8153 44.3438 25.2528 43.121 24.6267 41.9296C23.982 40.7023 23.2759 39.5035 22.6597 38.261C22.2069 37.3477 21.7756 36.4137 21.5175 35.4236C21.1228 33.9095 20.997 32.3069 20.304 30.8839C20.0952 30.455 19.8477 30.0468 19.5266 29.6931C19.0906 29.2123 18.5424 28.8616 18.0436 28.4542C17.6718 28.1503 17.3355 27.8035 16.9411 27.5271C16.2017 27.0089 15.3619 26.6744 14.5139 26.3841ZM32.3996 70.9502C31.2694 70.897 30.1313 71.2131 29.1635 71.9333C28.9369 72.1021 28.893 72.4241 29.0605 72.6525C29.228 72.8812 29.5476 72.9254 29.7745 72.7566C31.3227 71.6024 33.4418 71.8233 34.906 73.0124C35.1385 73.1998 35.4735 73.1666 35.6596 72.9323C35.8456 72.6983 35.8126 72.3525 35.5801 72.165C34.6542 71.4221 33.5298 71.0036 32.3996 70.9502ZM35.1598 72.341C35.0349 72.3791 34.925 72.4714 34.8585 72.5968C34.5834 73.1216 34.0004 73.3924 33.51 73.6756C33.0466 73.9436 32.5819 74.207 32.0506 74.307C30.8945 74.5252 29.5603 74.1671 28.442 73.8674C28.1539 73.7909 27.8595 73.9692 27.7836 74.2592C27.7074 74.5492 27.8843 74.8459 28.1722 74.9226C29.5399 75.2843 31.0585 75.6633 32.4631 75.2981C33.0882 75.1357 33.6392 74.807 34.1923 74.483C34.8118 74.1196 35.4129 73.7295 35.7626 73.0763C35.8956 72.8257 35.7971 72.5149 35.5486 72.3809C35.4243 72.3139 35.2849 72.3026 35.1598 72.341ZM28.2118 73.8914C28.0833 73.915 27.9668 73.9825 27.8866 74.0994C26.8181 75.6556 24.9747 75.9654 23.2307 76.1692C22.6125 76.2416 21.9934 76.3153 21.3749 76.3851C19.003 76.6529 16.6109 76.6483 14.2286 76.7209C13.5047 76.7429 12.7859 76.7682 12.0631 76.8086C11.0151 76.8674 9.96484 76.9434 8.91432 76.9127C7.48536 76.8708 6.06047 76.7298 4.63127 76.6889C4.33355 76.6805 4.08431 76.9165 4.07618 77.2163C4.06781 77.5163 4.30182 77.7595 4.59954 77.7677C6.02875 77.8074 7.45389 77.9513 8.88259 77.9918C10.6755 78.0424 12.4689 77.8457 14.2601 77.7838C16.801 77.6961 19.3386 77.6649 21.8665 77.3682C24.3561 77.0761 27.1572 76.9741 28.7273 74.6907C28.8879 74.4572 28.8323 74.1331 28.6003 73.9715C28.4846 73.8907 28.3404 73.8679 28.2118 73.8914ZM18.9241 55.1491C17.97 55.2376 17.0667 55.5013 16.2035 55.9164C15.4423 56.2824 14.7091 56.7264 14.0697 57.2832C13.5542 57.732 13.0933 58.2463 12.7372 58.8336C11.4377 60.9768 11.7108 63.7009 12.4281 65.9948C12.5938 66.5255 12.7824 67.0483 12.9753 67.5696C13.157 68.0601 13.355 68.5463 13.6019 69.0079C14.0634 69.8711 14.669 70.6868 15.2913 71.4377C15.588 71.7957 15.8946 72.1441 16.2271 72.4689C16.6715 72.9027 17.1565 73.2771 17.5121 73.7955C17.6822 74.0418 18.0134 74.1029 18.2576 73.9313C18.502 73.76 18.5627 73.4183 18.3926 73.1722C17.8604 72.4072 17.1063 71.8645 16.489 71.174C15.7743 70.3747 15.0542 69.4445 14.5459 68.4964C14.3217 68.0788 14.1474 67.6376 13.9827 67.1938C13.4933 65.8762 13.0433 64.5437 12.9197 63.1337C12.8194 61.9868 12.9372 60.8293 13.4194 59.7768C13.8106 58.9233 14.505 58.2264 15.2517 57.6827C16.5416 56.7435 18.0482 56.1703 19.6457 56.1481C22.2272 56.112 24.6701 57.2021 27.1013 57.9305C27.3716 58.0116 27.6557 57.8591 27.7359 57.5867C27.8163 57.3146 27.6572 57.0284 27.3869 56.9473C24.6366 56.1225 21.8586 54.877 18.9241 55.1491ZM17.8769 73.0684C15.8558 73.549 13.7722 73.1702 11.722 73.3001C10.7905 73.3589 9.84783 73.4735 8.93817 73.6837C8.61228 73.7589 8.29426 73.8635 7.97827 73.9715C7.85999 74.0119 7.74121 74.0546 7.62141 74.0914C7.59628 74.0991 7.56861 74.108 7.54222 74.1152C7.2516 74.1395 6.94119 74.3106 6.68561 74.4191C6.5917 74.4589 6.50134 74.5055 6.40794 74.5469C6.11403 74.6774 5.80412 74.8147 5.53559 74.9945C4.83761 75.4618 4.23634 76.204 4.12365 77.0644C4.08685 77.3623 4.29624 77.635 4.59167 77.6721C4.88711 77.7089 5.15767 77.4981 5.19447 77.2004C5.18863 77.2204 5.19777 77.1567 5.20234 77.1365C5.213 77.0897 5.22671 77.0462 5.24194 77.0004C5.27722 76.8956 5.32316 76.7938 5.37671 76.6968C5.5592 76.3682 5.81961 76.1063 6.13027 75.8976C6.6049 75.5789 7.17546 75.407 7.69298 75.1784C7.70821 75.1715 7.66176 75.1827 7.64527 75.1863C7.80364 75.1815 7.98943 75.105 8.12903 75.0584C8.47726 74.9423 8.81762 74.8155 9.176 74.7308C10.3379 74.4561 11.5745 74.3116 12.7692 74.2991C14.5771 74.2802 16.3202 74.5004 18.1071 74.0753C18.3814 74.0101 18.5525 73.7282 18.4878 73.452C18.4231 73.1755 18.1512 73.0029 17.8769 73.0684ZM7.69298 56.7476C7.5648 56.7729 7.44628 56.8456 7.3676 56.9635C6.8346 57.764 6.37774 58.685 6.13027 59.617C6.01784 60.0408 5.96987 60.4906 5.93992 60.9277C5.7988 62.9999 6.49474 64.9327 7.45491 66.7302C8.15466 68.0402 8.95289 69.2967 9.66788 70.5985C9.84453 70.9203 10.0098 71.2469 10.1912 71.5655C10.2476 71.6645 10.3039 71.7612 10.358 71.8615C10.3636 71.8719 10.3671 71.8852 10.3737 71.8934C10.3758 71.896 10.378 71.9014 10.3816 71.9014C10.3821 72.1776 10.4065 72.4709 10.4529 72.7405C10.5049 73.0359 10.7864 73.2323 11.0796 73.1802C11.3727 73.128 11.5676 72.8441 11.5159 72.5487C11.4534 72.2003 11.5065 71.8282 11.3811 71.4937C11.2897 71.2504 11.1148 71.0039 10.9925 70.7745C10.7831 70.3821 10.5676 69.9949 10.3499 69.6074C10.0887 69.1427 9.82067 68.6834 9.54884 68.2248C8.24629 66.026 6.87698 63.8344 6.95516 61.1756C6.96962 60.6822 7.02648 60.1597 7.17724 59.6888C7.41861 58.9356 7.77826 58.197 8.21634 57.5389C8.37345 57.3031 8.31558 56.9857 8.08156 56.8276C7.96456 56.7484 7.8209 56.7223 7.69298 56.7476ZM10.8336 72.1251C9.28361 72.2078 7.71735 72.132 6.18586 72.429C5.57087 72.5479 4.88584 72.7356 4.36959 73.1083C3.94953 73.4114 3.40486 73.8244 3.15587 74.2751C3.08278 74.4078 3.02034 74.5753 3.04496 74.7308C3.05942 74.8226 3.08023 74.9175 3.13226 74.9945C3.19293 75.0843 3.28886 75.1569 3.37821 75.2183C3.59369 75.3661 4.01603 75.2825 4.25842 75.2981C4.69726 75.3265 5.13762 75.4782 5.54346 75.6339C5.82189 75.74 6.12799 75.6027 6.23357 75.3221C6.3389 75.0416 6.20261 74.7249 5.92418 74.6188C5.51351 74.463 5.0894 74.3459 4.65513 74.2751C4.73355 74.2083 4.79624 74.1226 4.87721 74.0592C4.93838 74.0114 4.99828 73.9474 5.06757 73.9155C5.71884 73.6155 6.38713 73.4336 7.09805 73.34C8.35111 73.175 9.6293 73.2247 10.8892 73.1561C11.1707 73.141 11.3801 72.8963 11.3651 72.6126C11.3501 72.329 11.1151 72.1101 10.8336 72.1251ZM8.00212 53.135C7.70745 53.0928 7.43333 53.3015 7.39146 53.5984C7.08485 55.7842 7.32749 58.0435 7.81988 60.1842C8.07395 61.2896 8.39451 62.4198 8.95391 63.4135C9.56103 64.4912 10.177 65.5629 10.9605 66.5225C11.4255 67.0915 11.9448 67.6307 12.325 68.2647C12.4342 68.4468 12.537 68.6371 12.6024 68.8402C12.8227 69.522 12.726 70.3003 12.6501 70.9983C12.6192 71.2806 12.822 71.5346 13.1022 71.5655C13.3824 71.5967 13.6344 71.3924 13.6654 71.11C13.7583 70.2612 13.8385 69.3473 13.5702 68.5205C13.2347 67.4867 12.4207 66.689 11.7539 65.867C11.0118 64.9521 10.4382 63.9214 9.8661 62.8938C9.29452 61.8669 8.99757 60.6717 8.76355 59.529C8.37726 57.641 8.18943 55.667 8.46228 53.7504C8.50416 53.4534 8.2968 53.1772 8.00212 53.135ZM18.7099 39.5956C18.4294 39.5659 18.1764 39.7769 18.1467 40.0593C18.0845 40.6534 18.0929 41.2547 17.9324 41.8335C17.7987 42.3169 17.589 42.7872 17.3614 43.2322C16.7913 44.3466 15.9976 45.3957 14.99 46.1415C14.4093 46.5712 13.7278 46.8364 13.1022 47.1886C12.0468 47.7827 11.0324 48.4554 10.0326 49.1387C9.41356 49.562 8.78893 49.9682 8.30365 50.5534C7.48283 51.5426 7.60948 52.9306 7.25668 54.0941C6.60337 56.2476 4.93026 57.8392 2.815 58.498C2.53048 58.5868 2.36982 58.8909 2.4579 59.1773C2.54622 59.4638 2.84774 59.6259 3.13226 59.5369C5.48635 58.7993 7.35744 57.0681 8.18461 54.7094C8.42396 54.0268 8.49984 53.3168 8.62091 52.6076C8.69959 52.1462 8.80619 51.6109 9.11254 51.2408C9.59224 50.6613 10.2613 50.2638 10.8735 49.8421C11.7631 49.229 12.6707 48.6339 13.6098 48.0996C14.2129 47.7566 14.8593 47.4855 15.4342 47.0927C16.7195 46.2141 17.7132 44.8768 18.3845 43.4801C18.5959 43.0404 18.7868 42.5852 18.916 42.1133C19.0908 41.4754 19.0934 40.8168 19.1619 40.1631C19.1916 39.8808 18.9901 39.6255 18.7099 39.5956ZM5.09142 41.2501C4.79751 41.2984 4.59929 41.5775 4.64726 41.8736C4.86883 43.2363 4.72518 44.5709 4.31401 45.8857C4.04903 46.7333 3.64725 47.5541 3.52872 48.4433C3.47694 48.8331 3.52897 49.2134 3.55258 49.6024C3.56603 49.8252 3.56146 50.038 3.55258 50.2656C3.52237 51.038 3.41933 51.8094 3.46527 52.5836C3.50232 53.2048 3.69826 53.8544 3.56856 54.4777C3.35942 55.4821 2.80765 56.353 2.52135 57.331C2.34977 57.9177 2.30332 58.5085 2.38657 59.1134C2.42566 59.3947 2.68658 59.5842 2.96552 59.5448C3.24471 59.5057 3.4409 59.2507 3.40181 58.9694C3.26019 57.9563 3.65004 57.1739 4.04421 56.268C4.26756 55.7547 4.46096 55.2432 4.57569 54.6936C4.72746 53.967 4.5432 53.2462 4.50436 52.5196C4.45563 51.6081 4.60792 50.6971 4.61528 49.7861C4.61858 49.3881 4.51858 48.9922 4.57569 48.5953C4.71147 47.6533 5.19346 46.7594 5.44828 45.8458C5.82925 44.4793 5.93484 43.1 5.70996 41.6977C5.66225 41.4015 5.38508 41.202 5.09142 41.2501ZM12.325 1.63932C12.1527 1.66465 11.9821 1.71887 11.8174 1.8071C10.9286 2.28333 10.4415 3.51813 10.223 4.43682C10.1042 4.93606 10.0407 5.44759 9.96915 5.95527C9.91433 6.34581 9.83159 6.73354 9.84225 7.13023C9.86001 7.78344 9.98997 8.43204 10.0643 9.08039C10.0872 9.27886 10.1128 9.48756 10.1042 9.68782C10.0829 10.1699 9.92245 10.6804 9.74707 11.1344C9.73235 11.1387 9.71458 11.1474 9.6996 11.1505C9.57244 11.1753 9.44757 11.1817 9.31889 11.1904C8.95188 11.215 8.61482 11.2989 8.25593 11.3822C7.48232 11.5623 6.70007 11.7533 5.98763 12.1175C5.59651 12.3175 5.23991 12.5677 4.89295 12.837C4.33203 13.272 3.77339 13.7912 3.47314 14.4513C3.25486 14.9317 3.18404 15.4555 3.05282 15.9619C2.98049 16.2417 2.87617 16.4979 2.75155 16.7611C2.24824 17.8233 1.54062 18.7698 1.10965 19.8704C0.647464 21.0505 0.607616 22.2229 1.42692 23.2592C1.65712 23.5502 1.92794 23.8073 2.22007 24.0344C2.38403 24.1615 2.53023 24.2646 2.71171 24.362C2.86551 24.4444 3.04166 24.5145 3.20359 24.5779C3.62999 24.7449 4.56985 24.9728 4.36959 25.6408C4.30182 25.8667 4.11959 26.0623 3.98076 26.2483C3.7772 26.5214 3.60587 26.7912 3.48125 27.1114C3.33658 27.4828 3.25892 27.8836 3.09242 28.2465C2.97618 28.5 2.83709 28.7404 2.71171 28.9897C2.39241 29.6263 2.0919 30.2778 1.84723 30.9478C1.3627 32.2755 1.10636 33.6957 0.998487 35.1039C0.914729 36.1999 0.93173 37.303 1.03833 38.3968C1.11371 39.1726 1.24087 39.9455 1.36346 40.7148C1.46753 41.367 1.53555 42.0192 1.62514 42.6729C1.66195 42.9409 1.77083 43.3062 1.70458 43.5839C1.64824 43.8195 1.60763 44.0581 1.52996 44.2872C1.45255 44.5159 1.34646 44.732 1.24443 44.9507C0.814219 45.8724 0.239336 46.7377 0.054816 47.7561C-0.0393476 48.275 -0.00305125 48.807 0.0944119 49.3226C0.210403 49.9359 0.429949 50.5344 0.475127 51.1608C0.512437 51.6782 0.431979 52.2022 0.411675 52.7194C0.38807 53.3179 0.378932 53.9186 0.372079 54.5176C0.367764 54.8974 0.35609 55.2811 0.379948 55.6606C0.432487 56.501 0.693913 57.278 0.990617 58.0584C1.09163 58.3236 1.3858 58.4558 1.649 58.354C1.9122 58.2525 2.04342 57.9561 1.94241 57.6906C1.70941 57.0783 1.48656 56.4611 1.41905 55.8046C1.36524 55.2829 1.39722 54.7611 1.40306 54.2378C1.40991 53.6524 1.41854 53.0644 1.45077 52.4797C1.47615 52.0189 1.52311 51.5506 1.49037 51.0889C1.416 50.0431 0.857115 49.0065 1.06194 47.9479C1.24113 47.0223 1.77971 46.2305 2.17261 45.3903C2.41144 44.8793 2.58251 44.3673 2.70384 43.8156C2.79673 43.3934 2.69774 42.9471 2.64038 42.5289C2.53632 41.7703 2.45231 41.0158 2.33099 40.259C2.03124 38.3869 1.87058 36.5659 2.07718 34.6722C2.21398 33.4205 2.46779 32.1668 2.93404 30.9959C3.25105 30.1987 3.67897 29.4629 4.03634 28.6859C4.24548 28.2312 4.34294 27.7337 4.55183 27.2792C4.63939 27.0895 4.78584 26.926 4.90894 26.7598C5.09269 26.5117 5.27696 26.2526 5.36884 25.9526C5.43382 25.7411 5.44803 25.5372 5.4323 25.3211C5.41859 25.1308 5.36376 24.9413 5.28178 24.7697C4.88025 23.9298 3.94091 23.8183 3.20359 23.427C2.9513 23.293 2.7178 23.0896 2.51348 22.8914C2.33708 22.7201 2.17591 22.5305 2.05357 22.316C1.64392 21.5983 1.87413 20.7722 2.18048 20.0622C2.67617 18.9131 3.43329 17.9087 3.9173 16.7532C4.15741 16.18 4.19776 15.5455 4.40919 14.9629C4.48431 14.756 4.63355 14.5598 4.77416 14.3953C5.08863 14.0273 5.48306 13.7214 5.87646 13.4442C6.82318 12.7771 7.94172 12.5541 9.04909 12.3014C9.20341 12.2661 9.36838 12.2748 9.52499 12.2615C9.91788 12.228 10.2648 12.1487 10.5562 11.8618C10.6034 11.8152 10.6456 11.7569 10.6831 11.7019C10.824 11.495 10.8961 11.1116 10.9605 10.8707C11.06 10.5001 11.1572 10.1211 11.1748 9.73565C11.2154 8.85175 10.943 7.97909 10.9131 7.09826C10.9019 6.76807 10.9862 6.432 11.0321 6.10719C11.1298 5.41382 11.2164 4.70537 11.4603 4.045C11.6334 3.57671 12.0836 2.55801 12.7293 2.71837C12.8527 2.74906 12.9639 2.80942 13.0705 2.87822C13.2014 2.96288 13.3276 3.06902 13.4352 3.18206C13.5763 3.32989 13.6986 3.49153 13.8002 3.66954C13.9938 4.00868 14.0466 4.41611 14.1096 4.79642C14.1969 5.32508 14.258 5.85117 14.2761 6.38699C14.2865 6.68674 14.5337 6.92485 14.8311 6.91437C15.1289 6.90388 15.3573 6.65477 15.3469 6.35502C15.3278 5.81971 15.2786 5.28543 15.1961 4.75652C15.1322 4.34577 15.0624 3.91712 14.9185 3.52555C14.7083 2.95342 14.2847 2.43115 13.8002 2.07104C13.3692 1.75058 12.8415 1.56336 12.325 1.63932ZM3.67948 55.0931C3.54293 55.113 3.41171 55.1808 3.32262 55.301C2.72058 56.1202 2.08073 56.8895 1.22082 57.443C0.982998 57.5954 0.918532 57.9146 1.07006 58.1543C1.22133 58.3939 1.53808 58.4666 1.7759 58.3141C2.74597 57.6931 3.50004 56.8683 4.1871 55.9483C4.36528 55.7079 4.31451 55.3685 4.07618 55.189C3.95689 55.0992 3.81603 55.0731 3.67948 55.0931Z" fill="black"/>
</svg>
